<?xml version="1.0" standalone="no"?>
<!DOCTYPE svg PUBLIC "-//W3C//DTD SVG 1.1//EN" "http://www.w3.org/Graphics/SVG/1.1/DTD/svg11.dtd" >
<svg xmlns="http://www.w3.org/2000/svg">
<metadata>
This is a custom SVG webfont generated by Font Squirrel.
Copyright   : Garton font c 1992 by D Rakowski All rights reserved
</metadata>
<defs>
<font id="webfontwTtY4esY" horiz-adv-x="581" >
<font-face units-per-em="2048" ascent="1638" descent="-410" />
<missing-glyph horiz-adv-x="546" />
<glyph unicode=" "  horiz-adv-x="546" />
<glyph unicode="&#x09;" horiz-adv-x="546" />
<glyph unicode="&#xa0;" horiz-adv-x="546" />
<glyph unicode="!" horiz-adv-x="229" d="M41 78q4 41 29 59q16 14 45 15q46 0 67 -37q8 -14 8 -37q-3 -58 -49 -74q-4 0 -8 -1t-6 -2t-5 -1h-5q-51 0 -72 51q-4 25 -4 27zM43 981q0 63 49 82q14 6 29 6q31 0 49 -27q25 -35 25 -73q0 -20 -7 -58q-2 -8 -4 -20t-3 -18.5t-1 -10.5l-24 -246q-12 -123 -19 -202 l-12 -160q-8 0 -25 16q-6 71 -12 179q-2 53 -8 182q-2 74 -12 164q-11 94 -25 186z" />
<glyph unicode="&#x22;" horiz-adv-x="481" d="M45 938q154 115 154 279q-10 16 -27 16q-14 0 -32.5 -8t-33.5 -8q-23 0 -40 26q-16 27 -17 45q0 16 10 33q34 37 68 37q68 0 96 -78q14 -37 15 -84q0 -68 -37 -129t-107 -131q-23 -23 -35 -23q-14 0 -14 25zM252 938q154 115 154 279q-10 16 -27 16q-14 0 -32.5 -8 t-33.5 -8q-23 0 -41 26q-16 23 -16 43q0 16 12 35q35 37 66 37q72 0 96 -78q14 -37 14 -84q0 -68 -36.5 -129t-106.5 -131q-23 -23 -35 -23q-14 0 -14 25z" />
<glyph unicode="$" horiz-adv-x="763" d="M31 242q0 51 32 82q12 14 33 14q37 -215 156 -246l22 8l-4 373q-111 41 -155 117q-37 55 -37 123q0 47 18 96q20 59 70 106q41 39 106 56v69q0 14 -1 29l-1 14q0 31 11 47q31 -8 30 -59q0 -27 -2 -47t-2 -51q20 0 41 2t47 2q35 0 60 -4q12 18 12 53q0 23 -2 45 q-4 45 -4 62l14 12q29 -39 29 -178q139 -43 158 -129q4 -37 4 -43q0 -45 -27 -72q-25 -18 -45 -23q-2 0 -23 5q-6 6 -6 14q0 10 10 29q12 23 13 32q-2 100 -66 119l-12 -10l-4 -316q14 -10 59 -32.5t62 -32.5q27 -16 47 -43q55 -76 55 -162q0 -41 -12 -84q-18 -66 -68 -102 q-61 -47 -145 -92q-6 -34 -6 -117q0 -78 -11 -123l-30 6q0 4 1 20.5t1 28.5v62q0 66 -10 123q-53 -16 -140 -17q-8 -53 -8 -116.5t-4 -108.5q-10 0 -16 2q-12 4 -15 4l2 225q-78 25 -131 55.5t-86 94.5q-20 41 -20 78zM150 754q0 -29 16 -68q43 -78 100 -78q10 45 10 121 q0 43 -2 86t-2 107q-10 0 -26 -4q-10 -2 -19 -11q-10 -10 -16 -18q-6 -6 -8 -9l-4 -6q-49 -48 -49 -120zM313 602q68 -23 140 -22q4 135 4 335q-25 6 -31 9q-8 2 -35 8q-20 4 -29 4q-33 0 -49 -8v-326zM317 80l13 -8q63 0 127 12v350q-16 4 -63.5 6t-76.5 19v-379zM506 92 q53 0 102 51q43 43 43 111q0 27 -10 74q-14 43 -51 69q-39 27 -84 31v-336z" />
<glyph unicode="%" horiz-adv-x="839" d="M23 879q0 31 8 53q20 59 61 92q47 37 109 43q66 0 102 -14q43 -16 68 -47q35 -41 35 -99q0 -25 -7 -49q-29 -102 -133 -127q-28 -6 -55 -6q-80 0 -137 49q-51 39 -51 105zM88 887q0 -29 8 -60q10 -31 41 -53q33 -23 66 -22q49 0 73 8q31 10 50 35q41 51 41 104 q0 39 -25 78q-31 45 -72 59q-23 8 -55 8q-59 0 -98 -57q-29 -47 -29 -100zM139 2q0 98 37 197l6 11l22.5 42t35 62.5l52.5 94l64 115.5l76 138l125 235l44.5 84l30.5 57l9 17h74l-90 -174l-95 -174l-102 -185l-96 -182l-127 -238q-50 -84 -66 -100zM453 152q0 31 8 53 q20 59 61 92q47 37 109 43q119 0 170 -61q35 -39 35 -97q0 -27 -7 -51q-27 -102 -133 -125q-25 -8 -57 -8q-74 0 -135 49q-51 44 -51 105zM518 162q0 -31 8 -62q10 -33 39 -53q33 -23 68 -22q49 0 74 8q31 10 49 35q41 51 41 104q0 41 -25 78q-35 49 -72 59q-25 8 -57 8 q-59 0 -96 -57q-29 -45 -29 -98z" />
<glyph unicode="&#x26;" horiz-adv-x="1087" d="M12 805q0 35 15 78q41 127 159 151q27 6 58 6q68 0 118 -41q94 -76 95 -237q0 -74 -13 -150q27 16 131 41q57 14 162 35q-2 29 -2 115q0 111 -30 176q-10 14 -45 22.5t-39 28.5q35 6 75 6h88q46 0 80 6l6 -14q-8 -14 -45 -24q-39 -12 -49 -39q-12 -55 -12 -154 q0 -94 2 -117q4 0 49 8q33 6 53 7q35 0 62 -11q51 -18 78 -36q29 -18 41 -60q6 -16 6 -47q0 -51 -35 -92q-37 -41 -100 -41q2 10 24 27q25 18 29 24q27 41 26 82q0 33 -22 59q-55 61 -150 64q-27 0 -61 -8q6 -47 8 -72q4 -66 4 -117q0 -346 -153 -452q-35 -27 -86 -27 q-37 0 -68 8q-82 18 -117 88t-53 185q-4 45 -4 47q0 45 16 133q14 80 19 112q-90 0 -146 13q-57 12 -102 57q-72 82 -72 160zM88 821q0 -88 70 -164q55 -55 133 -55q8 0 45 4q27 82 26 182q0 76 -22 154q-20 68 -102 68q-2 0 -35 -4q-35 -10 -51 -29q-20 -25 -43 -66 q-21 -41 -21 -90zM391 258q0 -160 107 -215q25 -12 49 -12q72 0 115 75q78 137 77 338q0 61 -2 104.5t-2 110.5q-102 -18 -149 -28q-96 -23 -142 -41l-20 -105q-18 -80 -25 -123q-8 -49 -8 -104z" />
<glyph unicode="'" horiz-adv-x="294" d="M45 938q154 115 154 279q-10 16 -27 16q-14 0 -32.5 -8t-33.5 -8q-23 0 -40 26q-16 27 -17 45q0 16 10 33q34 37 68 37q68 0 96 -78q14 -37 15 -84q0 -68 -37 -129t-107 -131q-23 -23 -35 -23q-14 0 -14 25z" />
<glyph unicode="(" horiz-adv-x="397" d="M25 496q0 115 36 249q22 80 80.5 148t128.5 111q68 41 133 51q-31 -27 -73 -51q-53 -31 -86 -58q-39 -33 -66 -82q-27 -51 -43 -139q-12 -111 -12 -184q0 -279 113 -428q20 -25 40 -37q35 -20 66 -35q47 -20 66 -31q-53 2 -109 19q-57 16 -86 39q-188 154 -188 428z" />
<glyph unicode=")" horiz-adv-x="421" d="M-23 10q18 10 66 31q31 14 66 35q20 12 41 37q113 150 112 428q0 74 -12 184q-16 94 -43 139q-35 57 -64 82q-33 27 -88 60q-52 31 -73 49q66 -10 133 -51q71 -43 129 -111t80 -148q37 -135 36 -249q0 -274 -188 -428q-29 -23 -86 -39q-56 -17 -109 -19z" />
<glyph unicode="*" d="M31 625q55 55 98 67h3q3 0 11.5 -1t19.5 -1t27.5 -1t34.5 -1q-43 45 -116 113l53 53q74 -68 112 -109q0 121 -2 156h74q4 -78 4 -166l58 60l53 55l53 -53q-37 -40 -111 -111h152v-74q-135 -4 -147 -4l88 -86q29 -29 28 -49q-68 0 -116 23q2 0 -10.5 13l-49.5 50 q0 -164 -14 -184q-51 51 -66 98q0 27 2 80q-106 -115 -137 -119q0 78 21 117q4 0 65 61q-165 1 -188 13z" />
<glyph unicode="+" d="M31 625q55 55 98 67q20 0 57 -2q49 -4 88 -4q0 168 -2 215h74q4 -98 4 -215h205v-74q-47 -2 -207 -2v-129q0 -92 -14 -106q-51 51 -66 98q2 47 4 139h-67q-16 0 -39 -1t-27 -1q-92 1 -108 15z" />
<glyph unicode="," horiz-adv-x="294" d="M45 -279q154 115 154 279q-10 16 -27 16q-14 0 -32.5 -8t-33.5 -8q-23 0 -40 27q-16 27 -17 45q0 16 10 32q34 37 68 37q68 0 96 -78q14 -37 15 -83q0 -68 -37 -129.5t-107 -131.5q-23 -23 -35 -22q-14 -1 -14 24z" />
<glyph unicode="-" d="M31 625q55 55 98 67l162 -6h264v-74h-266h-80q-20 0 -46 -1t-32 -1q-84 1 -100 15z" />
<glyph unicode="." horiz-adv-x="294" d="M59 66q0 23 13 40q18 29 49 35q57 0 76 -43q4 -12 4 -24q-4 -29 -19 -47q-25 -27 -57 -27q-4 0 -25 4q-41 17 -41 62z" />
<glyph unicode="/" horiz-adv-x="681" d="M53 2q0 95 37 197l6 11l22.5 42t35 62.5l52.5 94l64 115.5l76 138l125 235l44.5 84l30.5 57l9 17h74q-80 -158 -287 -533l-96 -182q-123 -233 -127 -240q-41 -69 -66 -98z" />
<glyph unicode="0" horiz-adv-x="878" d="M45 471q0 141 43 295q34 123 129 203q94 78 207 94q53 4 57 4q147 0 240 -115q129 -157 129 -368q0 -168 -90 -361q-51 -106 -146 -166q-90 -57 -208 -57q-35 0 -46 2q-70 6 -147 66q-168 141 -168 403zM143 545q0 -158 55.5 -281t188.5 -196q45 -23 84 -23 q102 0 178 100q113 152 113 369q0 193 -92 352q-43 74 -103 115q-65 43 -135 43q-57 0 -104 -27q-135 -72 -172 -278q-13 -113 -13 -174z" />
<glyph unicode="1" horiz-adv-x="489" d="M18 27q0 8 5 12q25 8 69 8q49 0 73.5 6t24.5 29v827q-18 -2 -34 -16q-10 -8 -37 -35t-39 -35q-18 -12 -35 -12q-10 0 -22 6v17q152 117 206 213q12 18 33 18q14 0 43 -14v-951q0 -39 53 -55l103 -18v-25q-47 -2 -211 -2q-162 0 -207 -2q-25 2 -25 29z" />
<glyph unicode="2" horiz-adv-x="768" d="M35 55q0 18 24 66q27 51 29 57q33 82 96 139q68 61 182.5 143.5t174.5 151.5q53 61 53 148q0 78 -59 180q-49 84 -158 84q-53 0 -115 -23q-57 -20 -90 -44.5t-49 -73.5q-10 -27 -10 -58q0 -35 22 -90q23 -59 103 -65q29 0 65 24q39 27 57 29q10 -10 11 -23q0 -14 -21 -41 q-45 -70 -151 -69q-84 6 -133 80q-27 39 -27 90q0 39 8 65q14 63 59 119q41 51 105 82q61 31 127 37q53 4 63 4q166 0 252 -119q55 -71 56 -147q0 -37 -17 -96q-31 -108 -98 -173q-76 -72 -186 -137q-115 -68 -181 -116q-57 -43 -102 -129q109 35 170 36q47 0 84 -12 q55 -18 90 -33q43 -18 92 -32q41 -12 98 -13q33 6 33 56q0 10 -4 47q-4 20 -22.5 36.5t-22.5 45.5q78 -35 90 -109q0 -86 -39 -125q-53 -53 -121 -53q-40 0 -73 12q-63 23 -101 39q-84 37 -106 43q-39 12 -82 12q-89 0 -160 -86q-16 16 -16 41z" />
<glyph unicode="3" horiz-adv-x="794" d="M39 186q0 109 43 152q18 18 33 27q20 12 35 12q10 0 10 -10q-2 -20 -19 -64q-16 -45 -16 -76q8 -104 96 -157q68 -37 148 -37q113 0 198 67q100 76 101 189q0 37 -13 73q-53 154 -174 168q-43 8 -73 9q-53 0 -70 -41h-21q0 43 25 63q23 18 72 39q47 18 63 35 q121 78 121 180q0 25 -6 45q-23 115 -158 152q-43 12 -84 12q-76 0 -129 -53q-72 -76 -71 -123q0 -22 18 -43q31 -33 100 -33q37 0 37 -12q0 -4 -4 -8q-37 -53 -111 -54q-59 6 -98 70q-14 23 -14 53q0 53 65 135q98 125 250 125q80 0 154 -32q57 -25 82 -48q33 -29 49 -71.5 t16 -77.5q0 -33 -16 -86q-14 -41 -41 -68q-16 -16 -84 -69l3 -2q15 -8 48 -29q53 -33 78 -55q27 -25 45 -58q33 -63 33 -139q0 -104 -62 -194q-104 -156 -321 -156q-63 0 -141 14q-84 16 -135.5 61t-61.5 115z" />
<glyph unicode="4" horiz-adv-x="882" d="M39 266q0 25 12 33q20 16 37 25q27 14 39 30q33 57 33 60l37 84l30 73q29 74 47 129l33 107q8 25 33 129l33 129q2 0 11 1t17 1h29q37 0 43 -25q-72 -332 -283 -647v-20q59 0 107 -6q35 -4 121 -23q74 -15 117 -18q0 4 1 17t4 47t5 65q10 119 33 180q25 63 88 98 q-27 -141 -27 -401q2 -14 55 -15q49 2 84 60q10 20 10 33q0 10 -10 40.5t-10 49.5q49 0 66 -47q12 -33 12 -64t-15 -59q-37 -76 -184 -76q-10 -31 -10 -70q0 -23 2 -47t2 -67q4 -25 22.5 -31t53.5 -12q29 -6 39 -23q-111 -6 -172 -6q-45 0 -95.5 -1t-54.5 -1q-4 16 -4 20 q27 6 43 9q29 2 47 10q14 6 19 26q0 8 4 61.5t4 63.5q0 55 -35 84q-111 31 -162 43q-55 12 -119 13q-35 0 -75 -6q-12 -4 -39 -37q-29 -35 -49 -35q-13 0 -29 16z" />
<glyph unicode="5" horiz-adv-x="784" d="M31 219q0 55 28.5 98t77.5 70q6 0 10.5 2t8.5 2t10 -10q-49 -55 -49 -129q0 -43 18 -86q16 -45 51 -76q31 -28 86 -49q49 -20 107 -21q90 0 172 72q111 100 111 232q0 41 -13 84q-74 233 -258 249q-14 2 -65 2q-111 0 -152 -84q0 -2 -5 -11t-7 -17q-6 -23 -15 -31 q-10 -10 -22 -10q-35 0 -35 22q0 27 31 64q27 31 35 61q16 57 20 138v73.5t2 73.5q4 76 21 127q4 4 8 4q16 0 16 -20q0 -8 17 -21q57 33 135 33q29 0 168 -23q6 0 13 -1t11 -2t6 -1q40 0 117 37q0 -43 -24 -78q-43 -53 -115 -53q-31 0 -98 12q-80 14 -105 15q-63 0 -102 -33 q-10 -10 -21 -31q-9 -18 -12 -43q-4 -33 -4 -45q0 -8 -1 -22.5t-1 -20.5q-2 -12 -4 -27q-4 -25 -4 -34q0 -4 -1 -17.5t-1 -23.5q29 4 102 20q82 18 131 19q33 0 80 -11q86 -20 143 -80q66 -68 88 -155q14 -43 15 -96q0 -152 -144 -283q-100 -94 -268 -94q-92 0 -174 26 q-59 20 -90 62q-37 49 -45 106q0 8 -1 16.5t-2 12.5t-1 6z" />
<glyph unicode="6" horiz-adv-x="845" d="M29 483q0 121 45 230q45 106 137 202q157 160 319 160q72 0 150 -37q63 -35 76 -80q6 -20 6 -40q0 -45 -35 -76q-33 -33 -59 -33l-25 4q0 10 16.5 49t16.5 58q0 35 -39 61q-68 49 -139 49q-45 0 -84 -20q-135 -71 -197 -209q-59 -133 -59 -314q0 -84 8 -133 q31 -219 188 -291q68 -29 125 -28q80 0 137 45q94 74 95 184q0 47 -9 80q-16 78 -51 143q-31 59 -98 84q-49 18 -90 19q-61 0 -131 -41q-23 -14 -35 -35l-29 -43q-14 -20 -30 -27q0 47 36 97q72 98 220 104q96 0 178 -51q80 -51 116 -139q20 -49 21 -111q0 -117 -88 -223 q-104 -127 -270 -127q-74 0 -164 29q-59 23 -103 59q-40 34 -80 98q-14 25 -30 66q-45 122 -45 237z" />
<glyph unicode="7" horiz-adv-x="817" d="M33 846q0 33 8 57q16 61 59 98q47 41 107 56q45 10 69 10q47 0 80 -10q23 -6 99 -35q78 -29 96 -35q27 -8 78 -12q18 0 28 8q12 8 27 27q15 18 25 24q12 8 20 10q53 0 53 -22q-12 -37 -39 -57l-57 -41q-31 -23 -47 -54q-55 -82 -100 -184q-43 -98 -68 -203 q-29 -123 -39 -209q-14 -115 -16 -231q0 -31 -37 -41q-12 -4 -27 -4q-25 0 -35 16q-18 43 -18 113q0 6 4 92q6 92 35 182q31 92 70 164l108 189q63 104 92 157q-29 16 -65 17q-18 0 -39 -2t-53 -2q-43 2 -136 34q-89 31 -129 31q-70 0 -104 -78q-6 -12 -6 -39q4 -53 41 -77 q16 -10 47 -11q14 0 39 4q4 0 10 1.5t9 2.5t5 1q-6 -35 -57 -54q-16 -4 -33 -4q-35 0 -69 25q-35 29 -35 86z" />
<glyph unicode="8" horiz-adv-x="831" d="M31 270q0 104 82 179q6 6 39 30q27 20 47 33l41 27q-80 70 -105 102q-35 47 -35 111q0 172 133 258q102 66 218 65q82 0 145 -33q61 -33 100 -102q23 -55 23 -104q0 -90 -53 -154q-23 -27 -60 -47q-27 -14 -55 -37q25 -16 76 -43q39 -18 88 -55q33 -25 49 -66 q31 -58 31 -123q0 -86 -52 -157q-111 -160 -342 -160q-68 0 -135 12q-170 27 -223 189q-12 38 -12 75zM137 299q0 -58 31 -123q31 -66 72 -92q29 -20 90 -29q41 -8 100 -8q160 2 236 94q45 51 45 117q0 35 -15 84q-23 74 -112 107l-95 36q-68 27 -77 29q-41 10 -74 10 q-96 0 -162 -98q-39 -59 -39 -127zM180 825q0 -51 29 -96q18 -31 47 -53q18 -14 59 -31q29 -10 68 -18q27 -4 78 -17q72 18 121 64q49 43 59 110q0 106 -57 170q-74 76 -183 76q-114 0 -178 -86q-43 -56 -43 -119z" />
<glyph unicode="9" horiz-adv-x="847" d="M33 713q0 84 53 178q96 168 315 176q233 0 342 -176q66 -119 66 -273q0 -217 -115 -387q-47 -63 -112 -120q-66 -55 -138 -86q-74 -31 -149 -31q-45 0 -105 16q-94 35 -108 101q-4 33 -4 34q0 29 18 60q10 16 33 45q12 16 35 16q10 0 22 -6q20 -8 21 -24q0 -14 -18.5 -41 t-18.5 -48q0 -16 8 -30q53 -78 144 -78q115 0 198 76q82 72 123 184q59 174 59 301q0 158 -86 299q-84 133 -223 133q-39 0 -74 -10q-127 -39 -169 -172q-18 -55 -19 -107q0 -147 127 -225q65 -43 129 -43q46 0 98 25q27 12 45 30q14 14 41 52q23 31 37 45q10 -6 10 -19 q0 -23 -18 -51q-51 -63 -118.5 -100t-159.5 -37q-174 12 -252 155q-37 64 -37 138z" />
<glyph unicode=":" horiz-adv-x="294" d="M59 70q0 23 13 41q16 29 49 34q57 0 76 -43q4 -12 4 -24q-2 -29 -19 -47q-25 -27 -57 -27q-4 0 -25 4q-41 17 -41 62zM59 524q0 23 13 41q16 29 49 35q59 0 76 -43q4 -12 4 -25q-2 -29 -19 -47q-25 -27 -57 -26q-4 0 -25 4q-41 16 -41 61z" />
<glyph unicode=";" horiz-adv-x="294" d="M45 -279q154 115 154 279q-10 16 -27 16q-14 0 -32.5 -8t-33.5 -8q-23 0 -40 27q-16 27 -17 45q0 16 10 32q34 37 68 37q68 0 96 -78q14 -37 15 -83q0 -68 -37 -129.5t-107 -131.5q-23 -23 -35 -22q-14 -1 -14 24zM59 524q0 23 13 41q16 29 49 35q59 0 76 -43 q4 -12 4 -25q-2 -29 -19 -47q-25 -27 -57 -26q-4 0 -25 4q-41 16 -41 61z" />
<glyph unicode="&#x3c;" horiz-adv-x="546" d="M27 416l98 86l149 135q102 92 138 127l49 -25q-41 -41 -215 -196q-144 -129 -154 -129l78 -82l152 -162l129 -135l-43 -27l-250 250q-96 99 -131 158z" />
<glyph unicode="=" d="M31 424q55 55 98 68l162 -7h264v-73h-266q-6 0 -33 -1t-47 -1h-78q-84 0 -100 14zM31 625q55 55 98 67l162 -6h264v-74h-266h-80q-20 0 -46 -1t-32 -1q-84 1 -100 15z" />
<glyph unicode="&#x3e;" horiz-adv-x="546" d="M63 739l48 25q55 -55 198 -184l187 -164q-33 -53 -121 -146l-258 -262l-45 27l202 213l84 88l57.5 59.5t16.5 18.5q-6 0 -149 125q-109 94 -220 200z" />
<glyph unicode="?" horiz-adv-x="600" d="M31 866q0 14 10 45q66 152 244 152q4 0 53 -4q76 -10 121 -30.5t73 -78.5q20 -41 21 -88q0 -66 -55 -151q-35 -51 -136 -119q-106 -74 -145 -115q-47 -51 -47 -141q6 -41 66 -55q6 0 12 -1t10 -2.5t6 -1.5q27 0 70 25q14 10 24 35q12 28 31 31q-2 -80 -76 -115 q-27 -14 -61 -14q-43 0 -78 30q-39 45 -39 103q0 45 19 82q29 55 129 137q102 82 143 125q39 39 39 106q0 59 -45 119q-49 70 -150 72q-51 0 -88 -11q-31 -8 -53 -45q-29 -45 -29 -63.5t15 -38.5q4 -8 41 -29q35 -18 34 -43q-12 -18 -51 -18q-55 0 -80 33q-28 32 -28 69z M180 66q0 2 4 26q12 43 58 49q70 0 84 -57q0 -51 -21 -70q-23 -18 -47 -18q-16 0 -33 6q-45 15 -45 64z" />
<glyph unicode="A" horiz-adv-x="1386" d="M57 674q2 80 60 127q66 57 145 57q41 0 70 -14q123 -55 164 -103q2 4 5 11.5t9 17.5q10 20 12 29l72 196l68 185q14 41 27 73.5l19.5 50t14.5 44.5q8 20 22 20q18 0 33 -20q18 -25 23 -39l94 -279l111 -342l102 -303l106 -291q6 -12 21 -20q12 -6 37 -13q29 -8 35 -10 q12 -6 12 -14q0 -10 -21 -31q-25 -6 -69 -6q-23 0 -49.5 -1t-28.5 -1q-135 0 -172 4q0 25 12 31q14 8 37 10q20 2 35 12q27 18 27 54q0 16 -7 34q-2 6 -8 21.5t-8 21.5q-14 37 -14 39l-47 140q-15 43 -43 92q-72 -33 -160 -33q-117 0 -211 65q-78 51 -94 86l-45 -112 q-39 -96 -56 -127q-2 -4 -20 -47q-16 -35 -27 -70q-10 -31 -10 -55q0 -43 22 -84q8 -12 19 -14l33 -9q20 -2 30 -10q10 -6 11 -18q0 -10 -6 -23q-6 -6 -166 -8q-182 0 -189 12q0 23 10 27q14 8 37 10q27 4 35 12q49 49 92 119q40 65 62 117q4 12 61 160q55 145 62 157 q-45 74 -86 119q-41 43 -103 49q-77 0 -110 -30q-33 -33 -33 -115l12 -37q10 -31 10 -37q0 -12 -14 -14q-20 0 -39 24q-16 23 -27 52q-6 24 -6 51zM555 707q61 -84 104 -127q45 -45 113 -70q31 -12 68 -12q57 0 96 26q-6 23 -74 236l-76 239l-57 170q-51 -108 -174 -462z " />
<glyph unicode="B" horiz-adv-x="1189" d="M53 -2l4 8q0 2 2 5t4 5q18 18 66 31q59 16 66 19q20 8 32 40q2 10 6 39q4 33 5 45q0 14 -1 163t-1 282v452v185q0 23 -25 28q-22 6 -68 7q-39 0 -63 10q0 33 16 33q39 0 156 8t211 8q195 0 321 -51q129 -53 179 -189q10 -27 10 -57q0 -43 -45 -131q-25 -43 -62 -74 q-39 -33 -96 -61.5t-70 -36.5q121 -12 158 -27q100 -35 159.5 -75.5t92.5 -118.5q31 -70 31 -146q0 -131 -94 -237q-78 -92 -193 -131q-111 -37 -264 -37q-74 0 -211 10q-68 6 -121 6q-88 0 -195 -22q-10 6 -10 10zM354 229q0 -86 15 -129q16 -47 67 -53q63 -6 133 -6 q303 0 396 182q53 100 53 185q0 78 -39 149q-47 92 -139 127q-94 35 -215 35q-80 0 -179 -10q-10 4 -10 10q0 20 33 39l96 22q37 8 80 25q39 14 78 39q45 27 74 59q45 47 45 137q0 78 -31 134q-35 55 -84 81q-52 28 -135 50q-52 12 -98 12q-61 0 -129 -21q-4 -119 -5 -221 v-309q0 -63 -1 -159.5t-1 -127.5q0 -66 -4 -250z" />
<glyph unicode="C" horiz-adv-x="1142" d="M27 602q0 150 90 342q59 127 137 211q84 90 182 139q104 53 238 68q57 0 137 -24.5t111 -24.5q25 0 67 16q14 4 15 4q12 0 22 -14q8 -10 8 -31q0 -163 13 -239q-2 -14 -13 -15q-25 0 -30 33q-8 49 -41 104q-31 53 -78 89q-49 37 -101 49q-49 12 -98 12q-201 0 -371 -213 q-76 -94 -120 -221q-43 -123 -43 -248q0 -238 139 -412q131 -166 354 -166q43 0 111 11q96 20 180 86q82 63 133 155l23 -8q-34 -80 -105 -147q-74 -70 -158 -111q-86 -41 -180 -45q-178 0 -315 78t-223 229q-84 150 -84 293z" />
<glyph unicode="D" horiz-adv-x="1343" d="M61 10q12 27 35 37q16 8 64 23q41 12 61.5 26.5t20.5 36.5v1143q-4 41 -68 41h-39q-10 0 -24.5 -1t-20.5 -1q-8 6 -8 14q0 16 18 17q238 20 359 20q219 0 405 -57q129 -41 205 -105q82 -68 141 -182q80 -147 80 -317q0 -207 -112 -418q-59 -104 -153.5 -170t-207.5 -90 q-123 -27 -242 -27q-131 0 -333 31q-23 0 -76 -15q-47 -12 -70 -12q-17 0 -35 6zM362 100l17 -24q125 -16 219 -17q137 0 254 45q109 43 186 154q43 68 64 125q29 80 39 139q12 74 12 146q0 181 -74 338q-74 158 -233 237q-156 78 -346 78q-57 0 -135 -10z" />
<glyph unicode="E" horiz-adv-x="1165" d="M45 1348q0 16 18 20q51 2 236 2q78 0 524 -4h127q0 -16 4 -94q2 -39 2 -88q0 -10 -4 -80q-10 16 -18 55q-6 33 -19 45q-12 16 -22 45q-12 34 -25 49q-12 14 -43 15l-522 4v-477l543 -2q29 0 47 22q20 23 37 66q18 46 18 49l15 -25v-157q0 -68 -13 -107q-14 12 -32 45 q-14 27 -33 49q-12 16 -39 17l-545 2v-754l610 4q68 0 101 41q35 45 53 117v43q0 31 31 31q6 -55 6 -136q0 -94 -12 -143h-263q-49 0 -100 1t-102 1h-260q-31 0 -285 -4q-10 6 -10 16q0 8 4 13q8 6 45 6q33 0 45 12q14 12 22 25q4 6 4 32l3 1168q0 29 -20.5 39t-57.5 10 q-35 0 -52 4q-18 0 -18 23z" />
<glyph unicode="F" horiz-adv-x="980" d="M47 1346q0 6 16 16h8q7 0 21 1t33.5 1h47.5h58h334h357q14 0 14 -16q0 -23 2 -68t2 -109q0 -55 -4 -55q-22 0 -31 19q-8 18 -12 53q-2 25 -8 43q-14 41 -35 61q-16 16 -70 17l-499 2v-473h538q28 0 43 18q18 23 29 53q12 37 22 58l15 2q8 -92 8 -156q0 -72 -8 -119 q-16 6 -37 39q-23 33 -39 51q-16 16 -41 17h-539l7 -705q0 -29 20 -35q23 -6 74 -12q63 -6 84 -18q4 -4 4 -6q0 -8 -16.5 -16.5t-32.5 -8.5h-349q-14 0 -14 23q8 8 47 14t56 14q18 10 18 35v1192q0 23 -23 33q-22 9 -61 18t-39 17z" />
<glyph unicode="G" horiz-adv-x="1222" d="M55 608q0 80 13 170q25 197 143.5 340.5t292.5 216.5q68 31 160 31q96 0 262 -43q23 0 41 8t30 8q14 0 15 -18q0 -35 8 -94q10 -76 10 -107q0 -37 -10 -67q-18 12 -25 24q-8 20 -16 45q-10 31 -18 47q-84 152 -287 152h-21q-4 0 -11 -1t-9 -1q-324 -18 -434 -463 q-27 -100 -27 -217q0 -164 66 -305q66 -139 192 -240q82 -57 186 -57q74 0 156 26q90 29 146 97q57 70 63 166q0 6 3 23.5t3 25.5q4 41 4 47q0 61 -47 80q-18 6 -37 8q-20 2 -41 10q-14 6 -14 27q121 0 256 4q6 0 35 4q20 0 26 -12q0 -15 -24 -31q-29 -18 -31 -31 q-23 -319 -237 -422q-147 -66 -279 -65q-174 0 -313 108q-230 178 -230 506z" />
<glyph unicode="H" horiz-adv-x="1343" d="M47 20q0 12 10 23q10 14 58 20q53 8 59 11q14 6 14 30l7 1153q0 20 -15 29q-25 16 -41 21q-25 8 -43 22q-14 12 -14 37h352q14 -16 15 -33q-12 -18 -29 -24q-20 -6 -51 -13q-39 -6 -47 -12q-14 -8 -15 -29l-2 -424h733v439q0 23 -16 28q-10 4 -57 15q-41 8 -41 22 q0 10 18 29h330q6 0 14 -12q6 -8 6 -21q0 -8 -4 -12q-6 -6 -51 -10q-43 -3 -68 -13t-24 -32v-1170q0 -16 14 -24q18 -10 41 -15q33 -8 39 -10q12 -6 12 -18.5t-10 -26.5h-348q-10 0 -10 10t8 19q2 0 8 1t19.5 3t25.5 4q41 6 68 20q23 12 22 39l2 680h-727v-672 q0 -18 10.5 -24t32.5 -12q29 -6 43 -15q16 -8 29 -26q0 -8 -8 -15q-2 -2 -6 -5t-7 -5h-348q-8 8 -8 18z" />
<glyph unicode="I" horiz-adv-x="405" d="M10 18q2 4 8 13q10 12 56 22q49 10 61 17q18 8 19 34l6 1153q0 20 -15 29q-27 16 -41 21q-25 8 -43 22q-14 12 -14 37h352q16 -23 17 -33q-12 -18 -29 -24q-31 -10 -51 -13q-34 -3 -49 -12q-14 -8 -15 -29l4 -1151q0 -18 10.5 -24t32.5 -12q29 -8 41 -15q18 -10 29 -26 q0 -8 -8 -17l-12 -12q-37 0 -349 4q-2 4 -6 11q-4 3 -4 5z" />
<glyph unicode="J" horiz-adv-x="976" d="M35 285q0 61 20 110q59 156 193 176q49 4 53 4q137 0 176 -98q16 -37 17 -51q0 -15 -13 -31q-18 10 -30 31l-29 43q-12 18 -35 25q-45 14 -76 14q-35 0 -63 -14q-82 -37 -103 -156q-6 -27 -6 -57q0 -63 31 -115q33 -53 84 -86q63 -33 125 -33q96 0 172 64q86 70 113 170 q29 104 28 251q0 8 -1 42t-1 61v106v535q0 23 -18.5 29t-55.5 6q-31 0 -51 4q-16 4 -18 16q0 10 8 17q6 4 29 10l22 6q12 0 102.5 4t102.5 4q66 0 113 -12l8 -23q-12 -10 -53 -20t-52 -14q-14 -6 -14 -27v-141q0 -37 1 -90.5t1 -69.5q0 -377 -43 -625q-18 -119 -78 -207 q-57 -84 -159 -118q-71 -25 -142 -25q-76 0 -147 27q-78 29 -129 77q-82 68 -82 181z" />
<glyph unicode="K" horiz-adv-x="1177" d="M45 1356q119 4 354 4q4 -8 7 -17q4 -16 4 -26q-18 -25 -72 -25q-27 0 -37 -8q-12 -10 -12 -41v-293q0 -233 -2 -323l526 616q16 16 16 30.5t-18 20.5q-23 8 -53 11q-12 2 -56 8q-14 2 -24 12q0 16 8 27q8 12 16 14h86q25 0 59 1t42 1q156 0 155 -14q0 -23 -14 -29 q-25 -12 -47 -18q-33 -8 -47 -23q-57 -47 -107 -102q-14 -16 -139 -170q-94 -115 -153 -174q68 -172 118 -279q57 -117 142 -244q18 -28 55 -92q31 -53 66 -96q29 -35 77 -59l15 -5q15 0 43 19q29 18 41 18q16 0 28 -20q-2 -63 -78 -88q-16 -6 -53 -6q-82 4 -133 51 q-121 113 -203 250q-29 45 -63 119q-23 47 -64 141l-79 182l-156 -192q0 -53 1 -135.5t1 -112.5q0 -131 2 -191q2 -20 25 -28l59 -17q41 -10 41 -20q0 -12 -35 -37q-37 4 -76 4q-45 0 -82 -2q-74 -4 -86 -4q-6 0 -15 1t-25.5 2t-30.5 1q-14 14 -15 51q18 8 49 10q39 4 52 9 q16 6 16 32l-4 1139q0 55 -39 55h-22q-18 0 -29 11l-17 16q-8 8 -12 14q-6 9 -6 21z" />
<glyph unicode="L" horiz-adv-x="1064" d="M14 1325q3 34 43 37q68 0 121 2t121 2q74 0 125 -8q-4 -8 -8 -15q-8 -12 -13 -16q-15 -12 -61 -18q-47 -6 -65.5 -12.5t-18.5 -32.5v-1203h281q223 0 323 21q31 6 41 41q9 34 19 80q8 45 36 63q23 16 31 17l10 -11v-272h-940q-16 16 -16 35q0 8 4 12q57 12 77.5 61.5 t20.5 139.5v67q0 16 -1 39t-1 27v473q0 98 1 232.5t1 168.5q0 27 -8 35q-10 10 -20 13q-12 2 -29 6h-49q-25 0 -25 16z" />
<glyph unicode="M" horiz-adv-x="1587" d="M31 1327q0 16 12 25q14 10 27 10q4 0 57 4t57 4q117 0 178 -102l123 -201l103 -174q53 -94 102 -191q43 -86 115 -243l110 282q51 131 113 250q59 117 156 226q90 100 219 174q10 6 20 6q14 0 31 -11q14 -8 14 -26q-4 -20 -22 -29l-72 -31q-53 -23 -86 -45 q-2 -25 -2 -118q0 -154 10 -394q6 -129 25 -376q12 -162 16 -168q2 -74 17 -107q12 -29 55 -45q23 0 35 2t24 2q15 0 19 -12q0 -41 -35 -41h-86q-20 0 -49 -1t-35 -1q-129 0 -180 14q-8 2 -8 15q0 8 4 12q12 12 55 18q29 4 53 11q12 4 13 20q-18 276 -19 541q0 276 23 551 q-104 -143 -168 -263q-74 -137 -115 -243q-39 -102 -82 -234l-88 -280q-2 -14 -31 -15q-31 12 -30 41q0 14 6 33q4 14 18 45q16 37 19 41q-242 532 -463 842q2 -53 2 -217q0 -70 1 -138.5t1 -136.5q0 -92 4 -264q4 -131 12 -268q0 -37 58 -62l88 -14l4 -14q0 -6 -4 -10.5 t-11 -6.5q-12 -4 -14 -4q-6 -2 -14 -4q-10 0 -113 -4q-51 -2 -110 -2q-70 0 -121 10q12 18 59 37q61 25 68 29q18 12 20 41q15 227 19 712q0 326 -2 412q-14 45 -99 76q-31 0 -49 -2t-33 -2q-22 0 -24 14z" />
<glyph unicode="N" horiz-adv-x="1386" d="M74 1325q0 28 43 37q4 0 18.5 4t26.5 6l49 8q25 4 37 4q53 0 90 -38q135 -162 201 -252q115 -156 176 -248q39 -57 166 -266l182 -316v86q0 612 49 864q25 123 121 156q18 6 37 6q66 -6 67 -45q0 -47 -20 -55q-29 -12 -47 -16q-23 -4 -41 -15q-14 -6 -23 -24 q-55 -104 -73 -211q-20 -119 -21 -240q0 -72 2 -141.5t2 -179.5q0 -61 4 -164q2 -33 10 -181q2 -27 4.5 -56.5t3.5 -45.5t1 -22q0 -18 -25 -19q-23 0 -31 14l-182 306l-227 352l-211 315l-158 228q4 -233 4 -271q0 -29 -4 -315.5t-4 -333.5q0 -2 -1 -16.5t-1 -24.5v-41 q0 -92 59 -111q16 -6 37 -8q8 -2 37 -8q12 -2 12 -14q0 -8 -6 -17q-18 -25 -88 -24q-29 0 -57.5 2t-77.5 2q-2 0 -30.5 -4t-32.5 -4q-35 0 -41 22q0 18 28 41q31 23 31 25q37 53 53 100q16 51 23 92q4 35 8 133q12 252 12 447q0 211 -14 395q-6 35 -45 41q-14 2 -42 5t-40 5 q-45 6 -51 31z" />
<glyph unicode="O" horiz-adv-x="1234" d="M55 623q0 145 49 286q49 139 146 252q92 106 227 168q76 39 164 39q164 0 326 -131q63 -51 100 -100q39 -51 61 -121q53 -154 54 -305q0 -117 -31 -224q-33 -113 -90 -202q-59 -92 -148 -168q-59 -51 -155 -86q-86 -31 -178 -31q-82 0 -172 29q-160 55 -244 206.5 t-107 333.5q-2 13 -2 54zM147 739q0 -172 72 -344q53 -123 166 -200q109 -76 246 -82q293 0 416 233q74 150 73 285q0 174 -116 370q-117 200 -277 246q-65 18 -129 19q-176 0 -305 -129q-146 -146 -146 -398z" />
<glyph unicode="P" horiz-adv-x="1120" d="M68 1362q31 2 145 2q123 0 162 2q23 2 100 2q131 0 248 -22q106 -20 192 -84t127 -166q35 -82 35 -170q0 -131 -82 -232q-66 -84 -149 -129q-88 -47 -178 -47q-57 0 -129 23q-55 18 -84 40.5t-41 63.5q-8 18 -8 43t24 78q18 31 64 31q4 -16 4 -19q0 -18 -18.5 -49 t-18.5 -51q0 -12 4 -25q31 -88 153 -88q29 0 84 10q98 20 162 88t76 162q6 47 6 90q0 203 -145 312q-152 106 -346 108q-41 0 -115 -8l2 -1212q0 -31 23 -37q20 -6 84 -12q61 -6 65 -27q0 -39 -35 -39h-26q-6 0 -16.5 1t-14.5 1q-172 -4 -346 -4q-4 4 -4 12q0 14 12 29 q12 16 22 16q49 0 82 17q37 18 37 57v451v97v84v67.5t1 54t1 39v24.5v8v293q0 33 -16 45q-16 14 -43 17q-59 12 -71.5 18t-28.5 35z" />
<glyph unicode="Q" horiz-adv-x="1277" d="M53 627q0 143 45 276t129 242q59 72 123 119q66 47 142 75q72 27 157 27q66 0 127 -16q236 -61 342 -291q66 -143 66 -307q0 -115 -31 -244q-82 -356 -377 -469q0 -49 -2 -64q0 -74 31 -120q68 -102 178 -103q33 0 72 12q59 23 90 50q33 29 33 73q-2 18 -13 35 q-4 6 -32 31q-23 20 -29 22q-2 0 -17 7q-12 4 -16 16q6 18 31 18q14 0 51 -14q55 -18 68 -111q0 -63 -33 -98q-37 -41 -98 -76q-66 -37 -134 -36q-104 0 -202 79q-57 45 -82 105q-29 70 -37 137q-2 0 -9.5 -1t-13.5 -1h-22q-293 0 -434 236q-103 176 -103 391zM131 713 q0 -125 41 -230q45 -117 121 -207q141 -166 291 -165q27 0 53 6q8 51 8 88q0 102 -67 145q-33 20 -97 21q-25 0 -53 4q-4 0 -4 4q0 6 6 12q8 8 14 8q59 14 117 15q109 0 162 -66q20 -23 27 -57q8 -37 10 -82t10 -78q131 14 223 137q133 174 133 379q0 186 -114 354 q-190 274 -412 275q-4 0 -49 -4q-217 -23 -324 -209q-96 -174 -96 -350z" />
<glyph unicode="R" horiz-adv-x="1187" d="M55 0q6 16 33 23q14 2 26.5 5t22.5 5q23 2 29 22q25 86 24 232v131v837q0 23 -14 35q-20 16 -43 27q-25 6 -37 6q-10 0 -20 1l-10 1q-6 0 -7 8q0 9 13 13q55 0 172 6q78 4 188 4q125 0 207 -17q90 -18 168 -67q72 -47 127 -139q20 -41 20 -93q0 -78 -43 -180 q-106 -141 -360 -180q84 -55 139 -100q57 -49 88 -113q37 -78 63.5 -160t61.5 -155q29 -61 84 -111q15 -12 31 -12q47 0 88 61q10 20 10 41q0 49 -43 102q4 4 12.5 4.5t10.5 2.5q41 -51 41 -105q0 -20 -4 -37q-25 -90 -97 -102q-49 -4 -55 -4q-82 0 -125 49q-70 78 -117 184 l-92 213q-41 96 -108 172q-63 74 -177 107q6 25 35 24q12 0 22.5 -2t24.5 -2q119 0 193 19q76 18 131 80q68 70 68 170q0 43 -15 92q-20 84 -90 137q-66 51 -156 70q-47 10 -149 10q-61 0 -81.5 -2t-47.5 -2q0 -819 12 -1202q0 -25 10 -43q12 -20 27 -27q2 0 5 -1t6 -1 t8.5 -1t9.5 -1q23 -4 31 -8q10 -6 14 -19q-72 -10 -164 -10q-4 0 -35 1t-55 1h-111z" />
<glyph unicode="S" horiz-adv-x="1001" d="M43 328q0 2 4 47q31 193 166 217q10 2 49 2q76 0 113 -43q-14 -10 -47 -10t-47 -6q-131 -55 -131 -234q8 -162 176 -225q92 -39 184 -39q109 0 201 67q143 106 143 232q0 6 -4 43q-18 117 -84 184q-63 66 -174 117l-203 92q-98 45 -153 94q-76 82 -80 189q0 41 12 84 q20 82 78 129q51 41 153 82q37 14 84 14q33 0 66 -6q70 -12 90 -19q53 -14 76 -18q25 -4 45 -4q40 0 61 12q33 0 33 -12q0 -10 4 -104.5t4 -102.5q0 -12 -4 -74q0 -6 -8 -6q-18 0 -29 29q-14 76 -73 147q-57 70 -132 94q-71 18 -116 19q-92 0 -162 -59q-94 -88 -94 -166 q0 -39 22 -68q63 -84 191 -145q188 -92 231 -111q104 -46 178 -123q76 -78 90 -211q2 -10 2 -45q0 -193 -174 -303q-133 -92 -305 -92q-168 0 -289 88q-147 101 -147 244z" />
<glyph unicode="T" horiz-adv-x="1280" d="M63 1090q4 49 5 137q0 113 2 139q874 0 1140 -2q12 -68 13 -135q0 -33 -2 -60q-4 -53 -4 -57q0 2 -3.5 11.5t-7.5 23.5t-10 31q-20 59 -37 79q-20 23 -61 35q-80 20 -224 21h-98q-18 0 -48 -1t-40 -1v-1190q4 -27 12 -35q6 -6 31 -14q20 -6 29 -13q14 -10 43 -10 q25 0 41 -6q14 -6 18 -39q-59 -6 -125 -6h-301q-6 6 -6 12q0 10 23 39q10 12 55 17q49 4 61 8q16 6 17 37v1200q-2 0 -21.5 1t-36.5 1h-88q-266 0 -309 -62q-6 -8 -27 -80q-21 -73 -41 -81z" />
<glyph unicode="U" horiz-adv-x="1392" d="M63 1348l25 16l328 2q25 0 24 -16q0 -6 -6 -13q-14 -12 -55 -14q-47 -4 -60 -8q-16 -6 -16 -31q0 -57 -4 -430q-2 -186 -2 -471q0 -117 74 -201q74 -83 190 -116q88 -27 160 -27q125 0 227 82q104 78 139 176q35 102 41 254q2 33 2 164q0 98 -4 286q-2 139 -6 205 q0 35 -24 66q-29 35 -56 43q-59 0 -71 22q3 25 37 25q8 0 38.5 1t53.5 1h92q92 0 137 -6l4 -29q-47 -16 -80 -35q-29 -16 -41 -53q-29 -127 -30 -395q-4 -272 -12.5 -403.5t-82.5 -260.5q-72 -129 -239 -168q-101 -25 -197 -24q-268 0 -401 207q-31 47 -45 139 q-14 90 -21 223q-4 84 -4 285v211q0 37 -4 131q-2 68 -6 106q0 15 -12 19t-39 6q-29 4 -39 8q-15 7 -15 23z" />
<glyph unicode="V" horiz-adv-x="1349" d="M61 1341q2 2 8.5 6.5t10.5 6.5q12 8 29 12q37 -2 163 -2q125 0 160 -2l4 -12q4 -12 4 -15q-16 -12 -51 -18t-51 -12.5t-16 -28.5q8 -51 59 -219q53 -174 111 -334l114 -320l74 -204l90 229l158 408l55.5 141l30.5 80.5l14 38t12 30.5q16 49 17 82q0 31 -15 60 q-6 14 -16 26q-12 12 -25 15l-30 6q-4 0 -14.5 2t-16.5 2l-4 12q0 12 8 15q12 4 25 6l20 4q43 8 117 8h59q14 0 35 -1t27 -1q2 0 12 1t16 1h29q0 -18 -10 -29q-12 -12 -31 -22q-25 -14 -31 -23q-43 -37 -67 -80q-18 -31 -49 -114q-27 -70 -45 -105q-182 -426 -365 -964 q-6 -18 -16 -25q-14 -10 -25 -10q-14 0 -20 14l-107 301l-115 328l-120 340l-101 289q-8 16 -26.5 26t-42.5 13q-18 2 -39 12q-13 6 -13 26z" />
<glyph unicode="W" horiz-adv-x="1859" d="M88 1366h352l3 -3l3 -3l7 -6q2 -2 2 -13q-14 -10 -49 -16q-33 -6 -54 -12q-18 -6 -18 -31q31 -123 74 -254l104 -301l104 -293q43 -120 80 -239q51 106 62 135q12 29 19 48t20.5 59t33.5 93l74 195q-23 70 -59 149q-39 88 -63.5 166t-26.5 160q0 88 67 150q53 47 121 47 q45 0 119 -29q59 -25 74 -76q12 -37 12 -75q0 -59 -23 -127q-25 -74 -69 -172l-53 -117q102 -295 223 -582l100 262l88 236l90 254q29 84 74 248q0 90 -45 90q-31 2 -78 18q-10 6 -10 21q0 16 20 18h322q33 0 33 -18q0 -10 -13 -11q-104 -27 -143 -120l-115 -302l-120 -329 l-115 -307l-96 -256q-10 -25 -27 -25q-8 0 -10 8l-97 230q-4 8 -47 135l-53 151q-14 39 -49 119l-35 -88l-63 -164l-80 -201l-68 -176q-4 -14 -24 -16q-9 0 -13 6q-37 88 -116 301l-115 320l-125 362l-98 289q-6 23 -21 31q-12 6 -41 14q-23 6 -37 16q-12 9 -12 31z M868 1233q0 -6 4 -39q41 -201 101 -315q57 133 78 206q27 94 26 125q0 51 -39 90q-37 37 -80 37q-15 0 -30 -6q-60 -18 -60 -98z" />
<glyph unicode="X" horiz-adv-x="1347" d="M45 29q0 12 14 14q109 16 189 131l352 508l-389 590q-14 20 -39 26q-8 2 -28.5 5.5t-28.5 5.5q-29 6 -43 22q8 23 28 29q10 0 51.5 1t69.5 1h121q14 0 125 -4q6 -6 6 -17q0 -23 -29 -22q-80 0 -79 -39q0 -14 12 -33l299 -475q12 18 104 146q96 133 127 182q47 76 70 143 q0 45 -59 64q-51 0 -56 16q0 37 21 37q8 0 40.5 1t57.5 1h98q61 0 107 -4l-4 -33q-52 -15 -68 -25q-12 -6 -37 -43q-84 -131 -168 -245l-202 -277q16 -27 55 -84l104 -162l140 -215l94 -145q23 -45 65 -63q41 -18 107 -31l4 -12q0 -8 -8 -15q-8 -4 -27 -8q-8 -2 -15 -5 l-3 -1q-143 4 -330 4q-16 0 -16 14q0 8 12 21l6 2q6 2 18.5 4l24.5 4q43 9 43 25l-4 12q-31 68 -70 129l-116 174l-101 149l-59 97l-49 -74l-105 -158l-102 -153l-58 -86q-12 -15 -12 -37q0 -23 41 -58q12 -8 41 -12q28 -3 43 -12q14 -8 14 -41q-27 -2 -112 -2q-8 0 -35 1 t-47 1q-16 0 -51 1t-53.5 1t-46 1t-36.5 1q-6 0 -12 10q-6 9 -6 17z" />
<glyph unicode="Y" horiz-adv-x="1343" d="M61 1124q4 74 17 115q16 53 55 86q55 49 107 49q29 0 51 -16q121 -86 190 -201q63 -106 168 -344q2 -8 6 -18.5l10.5 -26.5t10.5 -31q16 -47 37 -84l90 211q43 100 98 195q57 96 125 168q78 80 166 129q16 4 18 4q25 0 43 -17q25 -20 27 -40q0 -29 -16 -39 q-18 -10 -47 -17q-33 -6 -43 -16q-150 -111 -246 -260q-96 -147 -143.5 -323.5t-47.5 -360.5q0 -98 13 -201q6 -31 41 -37l67 -12q33 -6 37 -35q-45 -4 -96 -4q-43 0 -84 2t-103 2q-4 0 -82 -4q-68 0 -73 27q6 18 65 18q45 0 68 8q27 10 33 39q16 111 16 199 q0 126 -24.5 252t-73.5 245q-51 127 -115 230q-74 121 -147 211q-29 35 -74 35q-29 0 -49 -15q-18 -10 -23 -22q-16 -43 -18 -47q-6 -20 -19 -45q-6 -12 -20 -13q-1 0 -5 2q-6 1 -10 2z" />
<glyph unicode="Z" horiz-adv-x="1003" d="M45 12q12 43 105 224l221 415l219 398l129 231q0 33 -21 33q-49 -2 -221 -2q-181 0 -282 -37q-49 -18 -58 -57q-10 -43 -18 -130q0 -16 -14.5 -16t-14.5 16q0 41 -2 76t-2 101q0 18 -1 43.5t-1 33.5q0 16 25 17q72 0 210 1t195 3q227 4 336 8q29 0 29 -24q0 -16 -17 -37 l-143 -258l-203 -365l-162 -291l-145 -270q37 6 76 6q68 0 116 -8q41 -6 164 -31q111 -20 170 -24q129 0 168 100q12 34 12 61q0 33 -12 54q-10 25 -41 45q-28 18 -55 18q-18 0 -33 -8l-12 -6q-2 0 -5 -4t-5 -4q-4 -2 -13 -2q-2 0 -3 1q-3 1 -7 3q-8 8 -8 20q0 23 31 53 q35 33 77 33q18 0 33 -6q72 -31 92 -107q10 -41 11 -69q0 -70 -35 -125q-37 -59 -96 -94q-90 -53 -197 -54q-51 0 -74 5q-96 18 -110 20q-53 10 -119 21q-43 6 -90 6q-92 0 -164 -33l-12 -4q-6 0 -8.5 2t-4.5 4t-2 4l-3 4q-3 4 -5 6z" />
<glyph unicode="\" horiz-adv-x="681" d="M41 1055h74l284 -531l105 -188q66 -117 76 -137q37 -98 36 -197q-23 27 -49 72q-47 82 -75 135l-95 178l-71 135q-162 289 -285 533z" />
<glyph unicode="a" horiz-adv-x="958" d="M45 297q0 39 6 76q14 76 35 116q25 49 64 89q43 43 98 71q86 43 168 43q98 0 196 -55q18 43 70 45q2 0 8 -1t10.5 -1t9.5 -1t7 -1q0 -18 -4 -121q-2 -51 -2 -135q0 -178 18 -313q8 -39 78 -39q43 10 59 34q18 27 37 78q18 47 33 66q6 0 8 -4q2 -6 8 -6q-6 -80 -34 -146 q-27 -59 -93 -76q-35 -8 -53 -8q-59 0 -106 45q-33 35 -43 68q-41 -47 -54 -58q-18 -14 -51 -28q-84 -39 -166 -39q-104 0 -194 63q-113 80 -113 238zM168 332q6 -209 145 -264q45 -16 80 -17q115 0 213 113q0 70 -2 123q-4 106 -4 121q0 98 8 163q-57 82 -168 82 q-61 0 -114 -28q-84 -41 -121 -117q-37 -74 -37 -176z" />
<glyph unicode="b" horiz-adv-x="729" d="M-43 1333q74 29 149 29q10 0 27 -4q16 -2 21 -4v-277q0 -33 -1 -114.5t-1 -131.5q0 -47 -1 -135t-1 -129v-260q4 -182 131 -237q43 -18 88 -19q72 0 125 41q59 43 81 82q27 45 29 105q0 109 -26 170q-29 66 -93 108q-39 27 -98 27h-49q-18 -3 -43 -25q-27 -23 -39 -22.5 t-25 12.5q16 53 57.5 86t102.5 39q10 2 41 2q144 0 209 -129q43 -88 43 -182q0 -117 -61 -222q-90 -150 -289 -151q-88 0 -164 45q-78 47 -90 104q-31 141 -31 396q0 8 1 36.5t1 49.5q0 18 1 53t1 51t1 49t1 49q0 84 2 145.5t2 131.5q0 96 -4 174q-2 25 -35 24h-28 q-35 0 -35 33z" />
<glyph unicode="c" horiz-adv-x="724" d="M29 311q0 51 20 115q33 98 115 164q82 68 182 88q37 4 43 4q33 0 88 -12.5t86 -12.5q20 0 41 5q20 -59 21 -121q0 -31 -11 -76q-16 6 -22 22q-2 2 -5 10.5t-6 15.5t-6 15q-10 27 -20 37q-39 37 -72 53q-33 14 -84 19q-82 0 -131 -37t-86 -106q-37 -80 -37 -156 q0 -109 74 -195q86 -100 195 -100q35 0 78 14q45 12 73 39q31 27 70 82l21.5 29.5l16.5 22t5 8.5h16q-2 -53 -43 -109q-37 -51 -92 -84q-96 -57 -201 -57q-113 0 -198 67q-131 104 -131 256z" />
<glyph unicode="d" horiz-adv-x="950" d="M43 301q0 197 143 307q90 76 213 76q88 0 152 -39q25 0 33 8l-2 482q-4 33 -56 53q-57 0 -65 14q0 12 10 19q6 4 29 8q6 2 17 3t18 1q59 12 88 12q53 0 69 -31v-1007q0 -39 8 -80q6 -33 35 -51q29 -16 53 -17q14 0 41 11q31 14 45 39q16 27 25 65q6 29 16 59h13 q0 -174 -107 -213q-35 -12 -65 -12q-35 0 -66 15q-55 28 -86 92q-115 -113 -272 -113q-47 0 -90 12q-68 20 -125 78q-51 51 -68 127q-6 43 -6 82zM150 354q0 -49 8 -88q35 -154 151 -203q31 -14 74 -14q92 0 205 105q4 61 4 133q0 8 -1 45t-1 65.5t-1 65.5t-1 45v53 q-43 88 -148 88q-70 0 -147 -41q-143 -80 -143 -254z" />
<glyph unicode="e" horiz-adv-x="733" d="M37 324q0 49 10 96q16 82 64 135q51 57 120 88q76 33 156 39q10 2 47 2q193 0 240 -145q8 -25 8 -58q0 -70 -57 -127q-72 -74 -205 -73q-94 0 -187 41q-8 6 -8 10q0 6 8 6q88 -20 156 -21q96 0 156 48q53 47 53 114q0 23 -10 60q-18 61 -94 92q-37 14 -82 14 q-82 0 -156 -61q-100 -84 -102 -213q0 -31 8 -80q18 -95 67 -160q51 -68 123 -82q31 -6 60 -6q144 0 282 154q-2 -35 -28 -84q-23 -43 -64 -66q-119 -63 -227 -63q-131 0 -238 102q-100 107 -100 238z" />
<glyph unicode="f" horiz-adv-x="491" d="M35 618q2 6 4 15q8 4 70 4h23t18.5 1t12.5 1h8h3q2 18 2 88q0 152 19 268q18 113 88 215q68 98 200 154q16 6 41 6q47 0 84 -37t37 -82q0 -18 -10 -49q-31 -72 -113 -72q0 23 20.5 56t20.5 55q0 18 -16 45q-29 33 -62 35q-16 0 -30 -8q-113 -68 -150 -178 q-35 -106 -39 -289v-78q0 -16 1 -47t1 -45q0 -2 1 -8t1 -11v-20q39 0 76 2t78 2q61 0 68 -18q-6 -23 -216 -23q-2 0 -2 -229q0 -178 7 -283q0 -16 12 -22q4 -2 37 -15q25 -9 37 -18q12 -8 12 -27q-82 0 -141.5 -2t-141.5 -2q0 12 8.5 20.5t12.5 10.5q16 -4 18 -4 q18 0 30.5 14t12.5 33v368q0 88 -4 158q-2 0 -12 -1t-21 -1h-37q-49 0 -63 8q-6 2 -6 10z" />
<glyph unicode="g" horiz-adv-x="794" d="M39 307q0 33 8 80q25 123 109 201q82 76 211 94q117 0 213 -53q29 41 86 41q23 0 41 -2t41 -2q10 0 22 -7q10 -4 10 -18q-10 -10 -32 -16q-29 -6 -39 -13q-12 -6 -19 -24q0 -104 8.5 -243.5t8.5 -254.5q0 -74 -7 -156q-12 -154 -86 -264q-74 -109 -208 -174 q-90 -43 -138 -43q-8 0 -37 4v17q92 25 172 80q78 53 131.5 135t59.5 176q0 34 6 86l4 28.5l3 21.5t1 9q0 35 -12 78l-47 -31q-45 -31 -66 -37q-68 -25 -145 -24q-115 0 -184 57q-115 92 -115 254zM154 317q0 -141 90 -221q63 -53 149 -53q41 0 86 16q39 14 70 50 q33 35 41 73l2 363q-43 92 -170 92q-33 0 -66 -6q-74 -12 -123 -67.5t-67 -137.5q-12 -58 -12 -109z" />
<glyph unicode="h" horiz-adv-x="980" d="M2 1341q4 23 197 23q6 0 16 -12q10 -14 10 -27q0 -330 -2 -516q-4 -279 -6 -438l57 92q41 68 74 106q37 43 86 74q47 31 103 33q70 0 119 -24.5t61 -82.5q14 -63 18 -157q2 -61 2 -181q0 -74 19 -147q10 -29 53 -29q4 0 37 4q37 6 57 33q16 20 33 82q2 10 5 19.5l5 15.5 t3 11t2 8l1 3h17q0 -164 -119 -225q-31 -14 -55 -14q-49 0 -93 43q-37 37 -53 96q-14 51 -14 129q0 6 1 28.5t1 39.5v67q0 127 -39 197q-23 41 -74 41q-33 0 -59 -19q-109 -78 -172 -204q-66 -131 -66 -269q0 -41 4 -73q4 -16 39 -25q37 -10 37 -20q0 -12 -8 -21 q-63 -2 -258 -2q-4 0 -4 10l-2 13q45 10 53 14q12 6 25 29q0 498 -2 671q-4 362 -9 543q0 23 -24 27q-8 0 -23.5 4l-23.5 6q-27 4 -29 24z" />
<glyph unicode="i" horiz-adv-x="485" d="M-6 666q39 10 104 16q80 6 86 8q23 -4 23 -37q0 -242 4 -512q0 -61 70 -86q20 -4 22 -4q66 0 119 103q12 20 20 65q8 43 21 62q8 -23 8 -50q0 -29 -14 -73q-33 -113 -115 -144q-35 -12 -70 -12q-61 0 -112 47q-63 70 -64 166v391q0 23 -26 27l-50 6q-26 4 -26 27z M53 1053q0 39 37 63q16 10 39 10q55 0 78 -53q6 -12 6 -29q0 -57 -53 -75q-20 -4 -23 -4q-31 0 -49 16q-25 23 -31 45q-4 25 -4 27z" />
<glyph unicode="j" horiz-adv-x="317" d="M-125 -387q0 23 8 53q6 25 29 45q23 18 47 19q14 0 27 -6q8 -8 8 -23t-12 -49q-12 -33 -13 -55q0 -25 15 -41q18 -25 51 -25q18 0 35 10q47 31 59 80q14 53 16 125q0 12 1 76.5t1 116.5v206q0 276 -10 461q-2 27 -26 33q-29 8 -58 8q-35 0 -35 10q0 8 17 25q135 4 139 4 q2 0 11.5 -1t15.5 -1t14 -1t10 -1l21 -16q0 -52 6 -191t6 -203q0 -18 1 -66t1 -77q0 -264 -37 -446q-18 -83 -67 -136q-51 -55 -121 -57q-55 0 -82 8t-53 41q-25 34 -25 74zM94 1032q0 49 17 72q23 23 53 22q29 0 51 -14q25 -16 31 -39q4 -20 4 -24q0 -57 -51 -72 q-12 -4 -27 -4q-27 0 -49.5 16t-28.5 43z" />
<glyph unicode="k" horiz-adv-x="811" d="M-18 1348q34 18 196 18q8 0 8 -86q6 -162 7 -291q0 -59 1 -136t1 -171q0 -133 4 -297q40 6 67 31q41 37 70 71l31.5 41t21.5 27q63 66 103 96q40 31 92 31q29 0 65 -12q25 -6 37 -29t12 -45q0 -16 -10 -41q-18 -39 -45 -39q-10 2 -20 29l-15 41q-6 20 -24 22 q-55 0 -101 -33q-57 -43 -106 -96q-61 -68 -76 -80q-12 -12 -12 -16q0 -12 51 -18.5t59 -12.5q57 -27 93 -76q72 -111 75 -118q41 -70 92 -103q8 -4 17 -4q35 0 69 66q8 20 11 41l8 39q2 10 20 10q0 -106 -41 -152q-51 -57 -116 -57q-29 0 -47 8q-57 20 -80 53 q-27 41 -66 115q-39 76 -80 113q-39 37 -108 37q-43 0 -43 -39v-115q0 -25 1 -58.5t1 -44t14 -18.5q8 -4 39 -8q27 -4 35 -6q0 -33 -45 -33q-23 -2 -103 -2q-94 0 -125 2q2 18 15 21q12 3 31 6q20 4 26 14q14 20 14 45v727q0 249 -6 479q-2 14 -26 21l-56 10q-28 7 -36 23z " />
<glyph unicode="l" horiz-adv-x="425" d="M-49 1321q0 6 31 25q28 12 73 12q33 0 55.5 -2t51.5 -2v-346v-394q0 -82 1 -225t1 -203q4 -104 84 -127q20 -4 24 -4q43 0 97 54q20 16 26 45q2 6 7.5 26.5l9.5 34.5q10 37 22 53q0 -131 -43 -192q-55 -80 -135 -80q-27 0 -45 8q-84 27 -113 102q-27 72 -26 187v969 q0 28 -25 36q-25 10 -59 13q-37 4 -37 10z" />
<glyph unicode="m" horiz-adv-x="1538" d="M18 635q0 25 21 24h182q8 -47 8 -139q0 -86 7 -139q43 104 112 184q74 86 170 113q25 8 60 8q57 0 100 -37q37 -31 47 -69q10 -43 16 -99q6 -68 17 -92q160 299 309 301q133 0 174 -123q25 -72 25 -149q0 -37 -6 -109q-8 -94 -9 -108q0 -61 15 -119q8 -35 55 -51 q55 0 102 45q16 14 27 43q4 16 10 30.5t8 22.5q10 27 25 37h4q0 -4 1 -10t2 -10.5t1 -7.5v-5q0 -70 -55 -135q-49 -59 -146 -72q-106 0 -147 133q-16 66 -16 138q0 55 4 98q6 63 6 102q0 100 -39 172q-14 31 -55 31q-29 0 -56 -14q-63 -37 -143 -131q-78 -94 -94 -181 q-10 -98 -10 -251q0 -12 8 -19q4 -2 26 -10q20 -6 28.5 -12.5t12.5 -22.5q-164 -4 -188 -4q-63 0 -80 2q2 14 14 20q14 6 33 13q22 6 31 12q10 6 10 18v199q0 213 -20 334q-2 16 -27 33q-23 16 -51 16q-16 0 -41 -10q-96 -49 -168 -135q-72 -88 -96 -193q-10 -41 -11 -102 q0 -4 1 -20.5t1 -30.5v-56q0 -51 41 -63q33 0 39 -15q0 -12 -12 -16t-39 -6q-131 0 -209 4q-16 0 -16 27q10 10 35 16q27 6 39 16q14 10 14 31l2 471q0 35 -33 49q-14 6 -39 11q-25 3 -37 12z" />
<glyph unicode="n" horiz-adv-x="1005" d="M0 645q0 10 16 21q20 14 107 14q68 0 110 -12q0 -10 -1 -28.5t-1 -25t-1 -21.5t-1 -25.5t-2 -28t-2 -25.5v-41q0 -47 6 -96l84 139q43 72 103 123q57 49 137 49q59 -4 82 -8q31 -6 53 -33q82 -82 82 -203q0 -33 -10 -125t-10 -126.5t2 -45.5q10 -74 69 -92q20 -4 25 -4 q68 0 141 148q0 -115 -125 -191q-25 -18 -53 -18q-35 0 -76 35q-86 86 -86 233q0 47 2 82q4 70 4 88q0 77 -18 135q-10 37 -33 55q-27 23 -55 23q-88 -12 -162 -86q-76 -76 -117 -164q-43 -92 -43 -141v-178q0 -18 35 -30.5t35 -29.5q0 -1 -1 -5q-2 -5 -3 -9q-102 0 -246 4 q-25 0 -24 12q2 10 32 19q27 8 43 16q14 8 15 29q0 25 1 108.5t1 143.5v258q0 14 -17 20q-27 10 -45 15q-31 6 -43 10q-10 4 -10 12z" />
<glyph unicode="o" horiz-adv-x="831" d="M29 313q0 41 16 103q23 76 72 131q51 57 116 90q74 37 154 45q53 4 59 4q169 0 283 -123q70 -82 70 -194q0 -43 -15 -101q-27 -100 -92 -164q-72 -68 -174 -92q-51 -12 -106 -12q-147 0 -279 96q-104 86 -104 217zM162 328q0 -55 16 -121q22 -68 80 -111q57 -43 135 -45 q2 0 9.5 -1t13.5 -1h20q133 0 201 88q80 109 80 213q0 80 -47 156q-63 94 -144 115q-68 18 -112 18q-121 0 -195 -113q-57 -87 -57 -198z" />
<glyph unicode="p" horiz-adv-x="788" d="M-12 635q0 12 32 20q18 0 61.5 6.5t63.5 6.5q59 0 70 -56q106 76 246 76q82 0 151.5 -35t106.5 -104q41 -78 41 -164q0 -131 -88 -233q-129 -147 -285 -148q-45 0 -94 12q-10 2 -39 14.5t-43 16.5q-4 -90 -4 -209q0 -14 1 -67.5t1 -92.5v-149q0 -10 10 -14q9 -3 31 -7 q27 -4 35 -8q12 -6 12 -16q0 -8 -8 -23q-211 0 -271 -2q0 14 11 21q12 8 26 10q18 2 29 10q10 6 10 23q0 293 2 499.5t2 555.5q-4 23 -16 28q-20 8 -43 8q-25 0 -41 4q-10 11 -10 17zM213 117q78 -76 158 -76q25 0 49 6q129 35 190 174q29 92 29 166q0 125 -76 193 q-63 55 -155 55q-63 0 -114.5 -26.5t-80.5 -78.5v-413z" />
<glyph unicode="q" horiz-adv-x="817" d="M37 289q0 104 49 192q49 89 135 142q88 59 191 59q80 0 143 -41l12 -4q12 0 25 14q12 16 24 17q16 0 58 4q20 2 45 2q29 0 51 -17q0 -16 -10 -26q-9 -9 -31 -19q-27 -10 -33 -20q-10 -14 -10 -33q2 -90 2 -274q0 -49 1 -130t1 -114q0 -49 4 -266q0 -43 1 -96.5t2 -89 t1 -58.5q0 -18 13 -27q10 -8 30 -14q18 -6 39 -12q0 -16 -43 -17l-11 1q-11 1 -21 1h-52q-22 0 -49 -6q-18 -4 -47 -4q-25 0 -65 6q6 14 18 21q10 4 37 8q25 2 35 10q10 6 10 21q-4 242 -4 420q0 6 1 33.5t1 48t1 47t1 32.5q-43 -43 -125 -71.5t-158 -28.5q-63 0 -102 16 q-82 31 -125 105q-45 78 -45 168zM162 311q0 -129 78 -213q52 -55 147 -55q31 0 66 8q119 37 122 90q8 51 9 181q0 29 -4 229q0 45 -41 67q-39 20 -101 21q-41 0 -88 -10q-66 -14 -106 -66q-39 -47 -64 -129q-18 -58 -18 -123z" />
<glyph unicode="r" horiz-adv-x="690" d="M-2 637q111 16 135 16q31 0 66 -6q14 -14 14 -59v-47q0 -12 -1 -32t-1 -28q61 84 139 146q80 63 156 63q68 0 119 -55q35 -47 34 -82q0 -16 -6 -39q-18 -55 -69 -70q-18 -6 -37 -6q-25 0 -41 15q0 2 3 6t7 11t8 15q23 39 23 41q6 15 6 31q0 12 -6 27q-28 46 -62 49 q-70 0 -119 -37t-102 -102q-61 -96 -61 -230q0 -111 41 -188q14 -20 41 -27q25 -6 65 -6q39 10 62 35q18 23 41 61q6 14 16 32.5t18 39.5h19q0 -68 -37 -123q-37 -53 -104 -82q-33 -12 -66 -12q-76 0 -141 65q-31 31 -41 66q-8 27 -15 102q-4 57 -4 105v117q0 16 -1 62 t-1 75q0 12 -12 16q-16 4 -36.5 4t-37.5 8q-12 7 -12 23z" />
<glyph unicode="s" horiz-adv-x="598" d="M23 174q0 43 32 76q35 29 45 29q8 0 15 -7q18 -18 18 -39q0 -10 -10 -44.5t-10 -45.5q0 -25 16 -41q61 -70 154 -69q29 0 59 6q55 12 96 49q39 37 43 90q0 90 -65 119q-39 14 -109 22q-68 8 -125 23q-47 12 -84 49t-39 103q0 94 84 147q76 41 170 41q43 0 197 -23 q12 -37 12 -77q0 -37 -8 -93q-16 10 -41 50l-15 23t-14.5 20.5t-9.5 13.5q-10 16 -47 33q-45 16 -80 16q-49 0 -104 -24q-59 -31 -60 -93q0 -16 7 -34q45 -41 161 -64q133 -25 168 -37q51 -18 82 -96q12 -31 12 -66q-4 -100 -75 -161q-88 -74 -213 -74q-63 0 -119 16 q-49 14 -80 35q-23 14 -47 64q-16 32 -16 63z" />
<glyph unicode="t" d="M-6 625q14 14 59 30.5t64 36.5q84 102 94 348q0 29 33 29q20 0 20 -12q-4 -45 -8 -193q-2 -92 -2 -219h264v-33h-266v-108q0 -27 -1 -66t-1 -49q0 -221 20 -283q14 -51 88 -51q27 0 52 6q57 10 82 56q31 57 51 125q16 -20 16 -45q0 -31 -16 -60q-43 -98 -156 -131 q-27 -8 -65 -8q-59 0 -113 41q-68 55 -68 137v230q0 49 -1 116.5t-1 85.5h-96q-37 1 -49 17z" />
<glyph unicode="u" horiz-adv-x="980" d="M12 662q61 20 215 20q12 0 13 -23q0 -467 20 -557q14 -49 115 -49q100 14 168 86q66 68 65 166q0 156 -4 303q0 18 -12 21q-12 4 -39 6q-29 4 -41 10q-14 8 -14 29q23 0 71.5 8t85.5 8q66 0 72 -37t6 -127q0 -6 -1 -39.5t-1 -60.5v-107q0 -137 17 -223q6 -27 40 -26 q33 0 66 20q31 18 47 45q18 29 33 70q12 37 22 55q6 -28 7 -43q0 -25 -15 -51q-68 -152 -178 -152q-57 0 -84 23q-25 20 -47 80q-22 55 -31 73q-129 -190 -289 -190q-70 6 -96 16q-35 12 -57 47q-41 72 -41 207q0 6 1 27.5t1 38.5v67q0 59 -2 78v54q0 39 -16 65 q-8 14 -41 21q-37 8 -43 10q-13 6 -13 31z" />
<glyph unicode="v" horiz-adv-x="661" d="M31 516q0 82 39 154l8 4q2 0 5 3t5 3q6 0 10 -4q8 -10 8 -25q0 -2 -8 -30q-6 -23 -6 -41q8 -55 43 -127q27 -51 74 -110.5t104 -121.5q55 -59 93 -108q180 193 180 391q0 59 -15 104q-12 65 -98 92l-16 5q-18 0 -45 -13q-33 -14 -35 -14q-12 0 -17 16q0 35 29 60 q28 25 62 30q18 6 41 7q47 0 86 -27q41 -29 55 -70q29 -76 29 -149q0 -71 -25 -135q-27 -70 -55 -113l-90 -131q-66 -92 -91 -135q-18 -29 -84 -29q-12 39 -49 94q-29 41 -84 105q-47 53 -80 96q-73 110 -73 219z" />
<glyph unicode="w" horiz-adv-x="1032" d="M14 508q0 94 88 170h15q-25 -100 -25 -121q0 -31 10 -55q27 -57 64 -121l80 -131l67 -109q16 2 28.5 14.5t20.5 30.5q8 16 17 31q45 70 59 129q27 102 37 168q18 113 39 160h21q8 -68 34 -139q20 -57 60 -132q29 -55 94 -161q66 -104 65 -107q57 76 78 121q72 139 72 291 q0 53 -6 108q-12 68 -107 86q-31 0 -59 -10q-34 -12 -49 -12q0 59 55 84q41 20 86 20q68 0 94 -43q61 -83 62 -184q0 -47 -13 -98q-8 -35 -36 -113l-45 -117q-18 -49 -43 -92q-29 -49 -64 -98q-26 -36 -38 -55q-2 -4 -3 -5q-14 -18 -41 -18q-16 0 -22 12q-27 72 -56 127 q-61 115 -67 127l-76 127q-20 -27 -37 -65l-16 -42t-19 -44q-16 -45 -41 -80q-10 -16 -32.5 -69.5t-38.5 -72.5q-18 -23 -52 -22q-4 0 -24 4q-16 66 -98 201q-83 135 -111 184q-27 47 -27 121z" />
<glyph unicode="x" horiz-adv-x="897" d="M27 682q31 2 137 2q135 0 166 -2v-12q-45 -18 -45 -49q0 -8 10 -25l80 -88q31 -35 53.5 -57.5t36.5 -38.5q2 2 14.5 11t34.5 28q37 31 61 55q20 20 37 53t17 64q-2 18 -39 32q-37 15 -43 31h262q10 0 10 -16q-6 -10 -31 -21q-35 -12 -38 -16q-43 -31 -82 -74 q-43 -47 -84 -98q-51 -66 -78 -94q25 -23 112 -125q72 -84 132 -140q51 -47 118 -71q12 -3 13 -13q0 -20 -37 -20q-12 0 -57.5 1t-77.5 1h-134q0 16 9 18q25 8 32 11q23 6 23 14l-10 20q-37 74 -197 234l-67 -61q-37 -33 -56 -58q-27 -33 -39 -59q-14 -29 -14 -64 q0 -12 14.5 -18t30.5 -12q18 -6 21 -19q-39 -8 -111 -8q-4 0 -26.5 1t-43.5 1h-90q0 18 37 31q35 10 41 18q31 27 86 82l94 100l92 103q-12 12 -110 119l-115 122q-29 33 -76 70q-6 4 -41 10q-32 7 -32 27z" />
<glyph unicode="y" horiz-adv-x="935" d="M27 549q0 58 36 98q33 41 87 47q88 0 124 -61q68 -92 166 -258l152 -254l47 102q8 18 41 113l41 123l39 123q0 25 -33 59q-6 6 -29 10q-18 2 -28 6q-8 2 -8 23h15q15 0 41.5 1t57.5 1q125 0 164 2q-3 -18 -12 -25q-2 -2 -7.5 -3t-13.5 -4t-14 -5q-27 -10 -35 -20 q-37 -45 -63 -109q-39 -94 -58 -145q-33 -98 -45 -125q-33 -72 -96 -230q-59 -145 -121 -266q-55 -108 -129 -209q-39 -51 -76 -75q-41 -27 -92 -27q-98 6 -127 72q-16 43 -16 69q0 45 35 56q20 0 28 -15l23 -41q16 -39 22 -45q12 -15 31 -18q82 0 129 45q49 47 86 119 l82 161q35 63 61 142l-81 149l-136 234q-72 123 -137 213q-25 31 -53 30q-12 0 -25 -6q-35 -18 -34 -65q0 -18 2 -35t2 -37q0 -18 6 -43t6 -47q-37 49 -47 98q-8 41 -8 72z" />
<glyph unicode="z" horiz-adv-x="669" d="M18 0q6 43 31 80q33 49 60 78l79 90q51 59 119 121q70 63 113 110q35 39 63 88q-84 -14 -176 -14q-94 0 -182 14q-14 0 -21 -10q-8 -14 -16 -31q-10 -25 -16 -32q-10 -12 -25 -13q0 102 41 185q23 23 51 22q15 0 37 -6q6 -2 45 -16q4 -2 20.5 -8.5t22.5 -8.5 q61 -20 127 -20q89 0 197 37q0 -33 -17 -62q-12 -23 -47 -67q-43 -55 -45 -60q-41 -55 -114 -123l-136 -125q-76 -74 -106 -116q8 0 86 4t100 4q20 0 47 -10q33 -12 58 -25q35 -16 53 -23q20 -6 41 -6q59 0 86 76q4 16 4 21q0 23 -27 61q-8 12 -30 21q-27 10 -27 26 q6 10 21 10q12 0 36 -10q61 -34 62 -123q0 -23 -4 -43q-18 -86 -146 -121q-20 -4 -41 -4q-35 0 -65 9q-41 10 -82 26q-57 23 -86 29q-41 10 -72 10q-68 0 -119 -45z" />
<glyph unicode="&#xa2;" horiz-adv-x="724" d="M29 311q0 51 20 115q31 94 111 162q78 66 178 88v160h74v-70q0 -18 1 -46t1 -38q29 -4 69.5 -14.5t79.5 -10.5q4 0 41 5q20 -59 21 -121q0 -31 -11 -76q-16 6 -22 22q-2 2 -5 10.5t-6 15.5t-6 15q-10 27 -20 37q-59 59 -141 72v-391q0 -160 2 -203q47 4 76 14 q45 12 73 39q31 27 70 82l21.5 29.5l16.5 22t5 8.5h16q-2 -53 -43 -109q-37 -51 -92 -84q-66 -41 -143 -53q-2 -115 -17 -135q-45 74 -61 133q-100 2 -178 65q-131 104 -131 256zM145 338q0 -109 74 -195q49 -61 115 -84q4 135 4 189v385q-94 -18 -156 -139 q-37 -80 -37 -156z" />
<glyph unicode="&#xa9;" horiz-adv-x="1042" d="M37 393q0 61 18 125q45 145 156 230q115 86 272 104q37 4 76 4q215 0 352 -154q86 -98 86 -239q0 -51 -16 -129q-23 -82 -66 -144q-45 -61 -112 -108q-68 -46 -154 -68q-76 -16 -133 -16q-187 0 -350 123q-129 104 -129 272zM113 395q0 -139 108 -229q141 -104 297 -105 q51 0 115 15q111 28 184 98q74 70 98 174q14 63 15 107q0 121 -74 207q-123 131 -303 131q-8 0 -61 -5q-86 -8 -162 -47q-76 -37 -125 -96q-51 -59 -76 -141q-16 -66 -16 -109zM283 410q0 49 14 86q23 70 86 122q61 52 135 68q29 0 103 -8q55 -6 92 -6q16 -45 16 -88 q0 -35 -8 -58q-14 6 -25 35q-8 29 -20 39q-49 49 -117 55q-109 0 -162 -108q-29 -63 -28 -117q0 -78 55 -145q61 -76 145 -76q23 0 60 10q34 9 55 31q31 31 49 57q10 16 22.5 30.5t12.5 16.5h12q-4 -41 -32 -80q-35 -45 -70 -63q-74 -43 -152 -43q-83 0 -147 49 q-96 80 -96 193z" />
<glyph unicode="&#xad;" d="M31 625q55 55 98 67l162 -6h264v-74h-266h-80q-20 0 -46 -1t-32 -1q-84 1 -100 15z" />
<glyph unicode="&#xae;" horiz-adv-x="1042" d="M37 393q0 61 18 125q45 145 156 230q115 86 272 104q37 4 76 4q215 0 352 -154q86 -98 86 -239q0 -51 -16 -129q-23 -82 -66 -144q-45 -61 -112 -108q-68 -46 -154 -68q-76 -16 -133 -16q-187 0 -350 123q-129 104 -129 272zM113 395q0 -139 108 -229q141 -104 297 -105 q51 0 115 15q111 28 184 98q74 70 98 174q14 63 15 107q0 121 -74 207q-123 131 -303 131q-8 0 -61 -5q-86 -8 -162 -47q-76 -37 -125 -96q-51 -59 -76 -141q-16 -66 -16 -109zM350 180q8 16 29 23q16 6 20 12q8 35 9 127v303q0 2 -17 12l-4 1q-4 1 -8 1h-12q-6 0 -7 13 q0 14 15 14h61q16 0 37 1t27 1q74 0 116 -16q47 -18 76 -68q10 -20 10 -39q0 -22 -18 -67q-34 -46 -111 -68q23 -14 31 -22q23 -20 39 -60l29 -74q16 -39 39 -59q20 0 26 14q0 31 -14 45q6 8 25 15q18 -27 18 -64q-8 -35 -43 -45q-55 0 -74 19q-25 25 -53 94q-31 74 -51 102 q-25 35 -78 49q6 23 43 23q80 0 106 33q18 25 23 57q0 2 -1 5t-2 9.5t-1 12.5q-15 55 -80 67q-16 2 -90 2q0 -242 4 -422q0 -14 6 -16q4 -2 7 -2q5 0 7 -2q8 -4 13 -8q6 -6 8 -15q-64 -8 -160 -8z" />
<glyph unicode="&#x2000;" horiz-adv-x="696" />
<glyph unicode="&#x2001;" horiz-adv-x="1394" />
<glyph unicode="&#x2002;" horiz-adv-x="696" />
<glyph unicode="&#x2003;" horiz-adv-x="1394" />
<glyph unicode="&#x2004;" horiz-adv-x="464" />
<glyph unicode="&#x2005;" horiz-adv-x="348" />
<glyph unicode="&#x2006;" horiz-adv-x="231" />
<glyph unicode="&#x2007;" horiz-adv-x="231" />
<glyph unicode="&#x2008;" horiz-adv-x="174" />
<glyph unicode="&#x2009;" horiz-adv-x="278" />
<glyph unicode="&#x200a;" horiz-adv-x="75" />
<glyph unicode="&#x2010;" d="M31 625q55 55 98 67l162 -6h264v-74h-266h-80q-20 0 -46 -1t-32 -1q-84 1 -100 15z" />
<glyph unicode="&#x2011;" d="M31 625q55 55 98 67l162 -6h264v-74h-266h-80q-20 0 -46 -1t-32 -1q-84 1 -100 15z" />
<glyph unicode="&#x2012;" d="M31 625q55 55 98 67l162 -6h264v-74h-266h-80q-20 0 -46 -1t-32 -1q-84 1 -100 15z" />
<glyph unicode="&#x2013;" horiz-adv-x="710" d="M31 625q55 55 98 67l162 -6h391v-74h-393h-80q-20 0 -46 -1t-32 -1q-84 1 -100 15z" />
<glyph unicode="&#x2014;" horiz-adv-x="1067" d="M45 625q80 55 148 67l243 -6h588v-74h-590h-119q-31 0 -70.5 -1t-47.5 -1q-125 1 -152 15z" />
<glyph unicode="&#x2018;" horiz-adv-x="294" d="M49 1196q0 47 14 84q29 78 97 78q34 0 67 -37q10 -16 11 -33q0 -23 -17 -45q-14 -27 -41 -26q-10 0 -35 10q-18 8 -30 8q-14 0 -27 -18q0 -164 154 -279q-4 -25 -15 -25q-12 0 -34 23q-70 70 -107 131t-37 129z" />
<glyph unicode="&#x2019;" horiz-adv-x="294" d="M45 938q154 115 154 279q-10 16 -27 16q-14 0 -32.5 -8t-33.5 -8q-23 0 -40 26q-16 27 -17 45q0 16 10 33q34 37 68 37q68 0 96 -78q14 -37 15 -84q0 -68 -37 -129t-107 -131q-23 -23 -35 -23q-14 0 -14 25z" />
<glyph unicode="&#x201c;" horiz-adv-x="489" d="M49 1196q0 47 14 84q29 78 97 78q34 0 67 -37q10 -16 11 -33q0 -23 -17 -45q-14 -27 -41 -26q-10 0 -35 10q-18 8 -30 8q-14 0 -27 -18q0 -164 154 -279q-4 -25 -15 -25q-12 0 -34 23q-70 70 -107 131t-37 129zM262 1196q0 47 14 84q29 78 97 78q34 0 67 -37 q10 -16 11 -33q0 -23 -17 -45q-14 -27 -41 -26q-10 0 -35 10q-18 8 -30 8q-14 0 -27 -18q0 -164 154 -279q-4 -25 -15 -25q-12 0 -34 23q-70 70 -107 131t-37 129z" />
<glyph unicode="&#x201d;" horiz-adv-x="481" d="M45 938q154 115 154 279q-10 16 -27 16q-14 0 -32.5 -8t-33.5 -8q-23 0 -40 26q-16 27 -17 45q0 16 10 33q34 37 68 37q68 0 96 -78q14 -37 15 -84q0 -68 -37 -129t-107 -131q-23 -23 -35 -23q-14 0 -14 25zM252 938q154 115 154 279q-10 16 -27 16q-14 0 -32.5 -8 t-33.5 -8q-23 0 -41 26q-16 23 -16 43q0 16 12 35q35 37 66 37q72 0 96 -78q14 -37 14 -84q0 -68 -36.5 -129t-106.5 -131q-23 -23 -35 -23q-14 0 -14 25z" />
<glyph unicode="&#x2026;" horiz-adv-x="884" d="M649 66q0 23 13 40q18 29 49 35q57 0 76 -43q4 -12 4 -24q-4 -29 -19 -47q-25 -27 -57 -27q-4 0 -25 4q-41 17 -41 62zM354 66q0 23 13 40q18 29 49 35q57 0 76 -43q4 -12 4 -24q-4 -29 -19 -47q-25 -27 -57 -27q-4 0 -25 4q-41 17 -41 62zM59 66q0 23 13 40q18 29 49 35 q57 0 76 -43q4 -12 4 -24q-4 -29 -19 -47q-25 -27 -57 -27q-4 0 -25 4q-41 17 -41 62z" />
<glyph unicode="&#x202f;" horiz-adv-x="278" />
<glyph unicode="&#x205f;" horiz-adv-x="348" />
<glyph unicode="&#x2122;" horiz-adv-x="2867" d="M1311 1327q0 16 12 25q14 10 27 10q4 0 57 4t57 4q117 0 178 -102l123 -201l103 -174q53 -94 102 -191q43 -86 115 -243l110 282q51 131 113 250q59 117 156 226q90 100 219 174q10 6 20 6q14 0 31 -11q14 -8 14 -26q-4 -20 -22 -29l-72 -31q-53 -23 -86 -45 q-2 -25 -2 -118q0 -154 10 -394q6 -129 25 -376q12 -162 16 -168q2 -74 17 -107q12 -29 55 -45q23 0 35 2t24 2q15 0 19 -12q0 -41 -35 -41h-86q-20 0 -49 -1t-35 -1q-129 0 -180 14q-8 2 -8 15q0 8 4 12q12 12 55 18q29 4 53 11q12 4 13 20q-18 276 -19 541q0 276 23 551 q-104 -143 -168 -263q-74 -137 -115 -243q-39 -102 -82 -234l-88 -280q-2 -14 -31 -15q-31 12 -30 41q0 14 6 33q4 14 18 45q16 37 19 41q-242 532 -463 842q2 -53 2 -217q0 -70 1 -138.5t1 -136.5q0 -92 4 -264q4 -131 12 -268q0 -37 58 -62l88 -14l4 -14q0 -6 -4 -10.5 t-11 -6.5q-12 -4 -14 -4q-6 -2 -14 -4q-10 0 -113 -4q-51 -2 -110 -2q-70 0 -121 10q12 18 59 37q61 25 68 29q18 12 20 41q15 227 19 712q0 326 -2 412q-14 45 -99 76q-31 0 -49 -2t-33 -2q-22 0 -24 14zM63 1090q4 49 5 137q0 113 2 139q874 0 1140 -2q12 -68 13 -135 q0 -33 -2 -60q-4 -53 -4 -57q0 2 -3.5 11.5t-7.5 23.5t-10 31q-20 59 -37 79q-20 23 -61 35q-80 20 -224 21h-98q-18 0 -48 -1t-40 -1v-1190q4 -27 12 -35q6 -6 31 -14q20 -6 29 -13q14 -10 43 -10q25 0 41 -6q14 -6 18 -39q-59 -6 -125 -6h-301q-6 6 -6 12q0 10 23 39 q10 12 55 17q49 4 61 8q16 6 17 37v1200q-2 0 -21.5 1t-36.5 1h-88q-266 0 -309 -62q-6 -8 -27 -80q-21 -73 -41 -81z" />
<glyph unicode="&#xe000;" horiz-adv-x="685" d="M0 685h685v-685h-685v685z" />
<glyph unicode="&#xfb01;" horiz-adv-x="978" d="M488 666q39 10 104 16q80 6 86 8q23 -4 23 -37q0 -242 4 -512q0 -61 70 -86q20 -4 22 -4q66 0 119 103q12 20 20 65q8 43 21 62q8 -23 8 -50q0 -29 -14 -73q-33 -113 -115 -144q-35 -12 -70 -12q-61 0 -112 47q-63 70 -64 166v391q0 23 -26 27l-50 6q-26 4 -26 27z M547 1053q0 39 37 63q16 10 39 10q55 0 78 -53q6 -12 6 -29q0 -57 -53 -75q-20 -4 -23 -4q-31 0 -49 16q-25 23 -31 45q-4 25 -4 27zM35 618q2 6 4 15q8 4 70 4h23t18.5 1t12.5 1h8h3q2 18 2 88q0 152 19 268q18 113 88 215q68 98 200 154q16 6 41 6q47 0 84 -37t37 -82 q0 -18 -10 -49q-31 -72 -113 -72q0 23 20.5 56t20.5 55q0 18 -16 45q-29 33 -62 35q-16 0 -30 -8q-113 -68 -150 -178q-35 -106 -39 -289v-78q0 -16 1 -47t1 -45q0 -2 1 -8t1 -11v-20q39 0 76 2t78 2q61 0 68 -18q-6 -23 -216 -23q-2 0 -2 -229q0 -178 7 -283q0 -16 12 -22 q4 -2 37 -15q25 -9 37 -18q12 -8 12 -27q-82 0 -141.5 -2t-141.5 -2q0 12 8.5 20.5t12.5 10.5q16 -4 18 -4q18 0 30.5 14t12.5 33v368q0 88 -4 158q-2 0 -12 -1t-21 -1h-37q-49 0 -63 8q-6 2 -6 10z" />
<glyph unicode="&#xfb02;" horiz-adv-x="917" d="M445 1321q0 6 31 25q28 12 73 12q33 0 55.5 -2t51.5 -2v-346v-394q0 -82 1 -225t1 -203q4 -104 84 -127q20 -4 24 -4q43 0 97 54q20 16 26 45q2 6 7.5 26.5l9.5 34.5q10 37 22 53q0 -131 -43 -192q-55 -80 -135 -80q-27 0 -45 8q-84 27 -113 102q-27 72 -26 187v969 q0 28 -25 36q-25 10 -59 13q-37 4 -37 10zM35 618q2 6 4 15q8 4 70 4h23t18.5 1t12.5 1h8h3q2 18 2 88q0 152 19 268q18 113 88 215q68 98 200 154q16 6 41 6q47 0 84 -37t37 -82q0 -18 -10 -49q-31 -72 -113 -72q0 23 20.5 56t20.5 55q0 18 -16 45q-29 33 -62 35 q-16 0 -30 -8q-113 -68 -150 -178q-35 -106 -39 -289v-78q0 -16 1 -47t1 -45q0 -2 1 -8t1 -11v-20q39 0 76 2t78 2q61 0 68 -18q-6 -23 -216 -23q-2 0 -2 -229q0 -178 7 -283q0 -16 12 -22q4 -2 37 -15q25 -9 37 -18q12 -8 12 -27q-82 0 -141.5 -2t-141.5 -2q0 12 8.5 20.5 t12.5 10.5q16 -4 18 -4q18 0 30.5 14t12.5 33v368q0 88 -4 158q-2 0 -12 -1t-21 -1h-37q-49 0 -63 8q-6 2 -6 10z" />
<glyph unicode="&#xfb03;" horiz-adv-x="1470" d="M981 666q39 10 104 16q80 6 86 8q23 -4 23 -37q0 -242 4 -512q0 -61 70 -86q20 -4 22 -4q66 0 119 103q12 20 20 65q8 43 21 62q8 -23 8 -50q0 -29 -14 -73q-33 -113 -115 -144q-35 -12 -70 -12q-61 0 -112 47q-63 70 -64 166v391q0 23 -26 27l-50 6q-26 4 -26 27z M1040 1053q0 39 37 63q16 10 39 10q55 0 78 -53q6 -12 6 -29q0 -57 -53 -75q-20 -4 -23 -4q-31 0 -49 16q-25 23 -31 45q-4 25 -4 27zM529 618q2 6 4 15q8 4 70 4h23t18.5 1t12.5 1h8h3q2 18 2 88q0 152 19 268q18 113 88 215q68 98 200 154q16 6 41 6q47 0 84 -37t37 -82 q0 -18 -10 -49q-31 -72 -113 -72q0 23 20.5 56t20.5 55q0 18 -16 45q-29 33 -62 35q-16 0 -30 -8q-113 -68 -150 -178q-35 -106 -39 -289v-78q0 -16 1 -47t1 -45q0 -2 1 -8t1 -11v-20q39 0 76 2t78 2q61 0 68 -18q-6 -23 -216 -23q-2 0 -2 -229q0 -178 7 -283q0 -16 12 -22 q4 -2 37 -15q25 -9 37 -18q12 -8 12 -27q-82 0 -141.5 -2t-141.5 -2q0 12 8.5 20.5t12.5 10.5q16 -4 18 -4q18 0 30.5 14t12.5 33v368q0 88 -4 158q-2 0 -12 -1t-21 -1h-37q-49 0 -63 8q-6 2 -6 10zM35 618q2 6 4 15q8 4 70 4h23t18.5 1t12.5 1h8h3q2 18 2 88q0 152 19 268 q18 113 88 215q68 98 200 154q16 6 41 6q47 0 84 -37t37 -82q0 -18 -10 -49q-31 -72 -113 -72q0 23 20.5 56t20.5 55q0 18 -16 45q-29 33 -62 35q-16 0 -30 -8q-113 -68 -150 -178q-35 -106 -39 -289v-78q0 -16 1 -47t1 -45q0 -2 1 -8t1 -11v-20q39 0 76 2t78 2q61 0 68 -18 q-6 -23 -216 -23q-2 0 -2 -229q0 -178 7 -283q0 -16 12 -22q4 -2 37 -15q25 -9 37 -18q12 -8 12 -27q-82 0 -141.5 -2t-141.5 -2q0 12 8.5 20.5t12.5 10.5q16 -4 18 -4q18 0 30.5 14t12.5 33v368q0 88 -4 158q-2 0 -12 -1t-21 -1h-37q-49 0 -63 8q-6 2 -6 10z" />
<glyph unicode="&#xfb04;" horiz-adv-x="1411" d="M938 1321q0 6 31 25q28 12 73 12q33 0 55.5 -2t51.5 -2v-346v-394q0 -82 1 -225t1 -203q4 -104 84 -127q20 -4 24 -4q43 0 97 54q20 16 26 45q2 6 7.5 26.5l9.5 34.5q10 37 22 53q0 -131 -43 -192q-55 -80 -135 -80q-27 0 -45 8q-84 27 -113 102q-27 72 -26 187v969 q0 28 -25 36q-25 10 -59 13q-37 4 -37 10zM529 618q2 6 4 15q8 4 70 4h23t18.5 1t12.5 1h8h3q2 18 2 88q0 152 19 268q18 113 88 215q68 98 200 154q16 6 41 6q47 0 84 -37t37 -82q0 -18 -10 -49q-31 -72 -113 -72q0 23 20.5 56t20.5 55q0 18 -16 45q-29 33 -62 35 q-16 0 -30 -8q-113 -68 -150 -178q-35 -106 -39 -289v-78q0 -16 1 -47t1 -45q0 -2 1 -8t1 -11v-20q39 0 76 2t78 2q61 0 68 -18q-6 -23 -216 -23q-2 0 -2 -229q0 -178 7 -283q0 -16 12 -22q4 -2 37 -15q25 -9 37 -18q12 -8 12 -27q-82 0 -141.5 -2t-141.5 -2q0 12 8.5 20.5 t12.5 10.5q16 -4 18 -4q18 0 30.5 14t12.5 33v368q0 88 -4 158q-2 0 -12 -1t-21 -1h-37q-49 0 -63 8q-6 2 -6 10zM35 618q2 6 4 15q8 4 70 4h23t18.5 1t12.5 1h8h3q2 18 2 88q0 152 19 268q18 113 88 215q68 98 200 154q16 6 41 6q47 0 84 -37t37 -82q0 -18 -10 -49 q-31 -72 -113 -72q0 23 20.5 56t20.5 55q0 18 -16 45q-29 33 -62 35q-16 0 -30 -8q-113 -68 -150 -178q-35 -106 -39 -289v-78q0 -16 1 -47t1 -45q0 -2 1 -8t1 -11v-20q39 0 76 2t78 2q61 0 68 -18q-6 -23 -216 -23q-2 0 -2 -229q0 -178 7 -283q0 -16 12 -22q4 -2 37 -15 q25 -9 37 -18q12 -8 12 -27q-82 0 -141.5 -2t-141.5 -2q0 12 8.5 20.5t12.5 10.5q16 -4 18 -4q18 0 30.5 14t12.5 33v368q0 88 -4 158q-2 0 -12 -1t-21 -1h-37q-49 0 -63 8q-6 2 -6 10z" />
</font>
</defs>
</svg>
